<svg width="24" height="24" viewBox="0 0 24 24" fill="none" xmlns="http://www.w3.org/2000/svg">
<g clip-path="url(#clip0)">
<path d="M23.5963 9.8761C23.5965 9.86429 23.5988 9.8529 23.5988 9.84104C23.5988 7.25354 17.6228 5.85742 12 5.85742C6.37708 5.85742 0.401184 7.2535 0.401184 9.84099C0.401184 9.84545 0.402122 9.84971 0.402122 9.85416C0.397903 12.082 1.21957 14.2324 2.70841 15.8898C3.09134 16.3057 3.51415 16.6831 3.9708 17.0165L2.01331 20.7687C1.86706 21.0507 1.83893 21.3793 1.93512 21.6821C2.03131 21.9848 2.24398 22.2369 2.52616 22.3828C2.69604 22.4716 2.88485 22.518 3.07657 22.5179C3.52404 22.5184 3.93457 22.2698 4.14143 21.873L6.07071 18.1798C7.58148 18.7669 9.17922 19.099 10.7988 19.1628V22.7999C10.7988 23.4627 11.3361 23.9999 11.9988 23.9999C12.6616 23.9999 13.1988 23.4627 13.1988 22.7999V19.1627C14.7496 19.099 16.2809 18.7925 17.7367 18.2542C17.7976 18.2312 17.8567 18.2013 17.9174 18.1769L19.8572 21.891C20.0639 22.2863 20.4726 22.5347 20.9187 22.5359C21.1123 22.5341 21.3028 22.4866 21.4746 22.3972C22.0578 22.0872 22.2835 21.3661 21.9812 20.7789L20.0175 17.0213C22.2783 15.3437 23.6068 12.6913 23.5963 9.8761ZM12 6.65739C18.3609 6.65739 22.7945 8.3335 22.7986 9.83888C22.7985 9.84615 22.7951 9.85243 22.7954 9.85974L22.7959 9.87259C22.7346 11.3702 18.3194 13.0246 11.9999 13.0246C5.63603 13.0246 1.2011 11.3468 1.2011 9.84099C1.2011 8.33514 5.63613 6.65739 12 6.65739ZM3.43202 21.5031C3.33143 21.6973 3.09288 21.774 2.89802 21.6746C2.80235 21.6267 2.73007 21.5422 2.69759 21.4402C2.6651 21.3383 2.67523 21.2276 2.72557 21.1332L4.64004 17.4636C4.8655 17.6004 5.09899 17.7292 5.34049 17.85L3.43202 21.5031ZM12.3988 22.8C12.3988 23.0209 12.2198 23.2 11.9988 23.2C11.7779 23.2 11.5989 23.0209 11.5989 22.8V17.6C11.5989 17.379 11.7779 17.2 11.9988 17.2C12.2198 17.2 12.3988 17.379 12.3988 17.6V22.8ZM21.272 21.1488C21.3746 21.3423 21.3016 21.5823 21.1087 21.6859C21.0152 21.7394 20.9037 21.7517 20.8007 21.7201C20.6977 21.6884 20.6125 21.6155 20.5652 21.5187L18.6484 17.8489C18.8467 17.7501 19.0444 17.6496 19.2363 17.5379C19.2521 17.5285 19.2673 17.5181 19.2816 17.5066C19.3042 17.4932 19.3248 17.4789 19.3471 17.4655L21.272 21.1488ZM18.8326 16.8426C18.8177 16.8514 18.8034 16.8612 18.7898 16.8719C18.3607 17.119 17.9127 17.3315 17.4498 17.5074C16.0857 18.0108 14.6516 18.2991 13.1988 18.3619V17.6C13.1988 16.9372 12.6616 16.4 11.9988 16.4C11.3361 16.4 10.7988 16.9372 10.7988 17.6V18.355C7.48834 18.1612 4.96324 17.1598 3.30626 15.3582C2.32985 14.2758 1.66428 12.9495 1.37998 11.5198C3.30059 13.0265 7.75014 13.8246 12 13.8246C16.2495 13.8246 20.6987 13.0266 22.6196 11.5201C22.1826 13.7569 20.8025 15.6966 18.8326 16.8426Z" fill="#19294D"/>
<path d="M3.09437 10.7884C3.23302 10.8252 3.38082 10.7849 3.48165 10.6828L5.48166 8.68284C5.5567 8.60784 5.59884 8.50612 5.59884 8.40004C5.59884 8.29397 5.5567 8.19225 5.48166 8.11725C5.40666 8.0422 5.30494 8.00006 5.19886 8.00006C5.09278 8.00006 4.99102 8.0422 4.91606 8.11725L2.91605 10.1173C2.81396 10.2181 2.77369 10.3659 2.81054 10.5045C2.84738 10.6432 2.95566 10.7515 3.09437 10.7884Z" fill="#19294D"/>
<path d="M4.41051 11.3044C4.44736 11.4431 4.55569 11.5514 4.69434 11.5883C4.833 11.6251 4.98079 11.5849 5.08162 11.4828L8.28164 8.28275C8.35668 8.20775 8.39883 8.10604 8.39883 7.99996C8.39883 7.89388 8.35668 7.79216 8.28164 7.71716C8.20664 7.64212 8.10492 7.59998 7.99884 7.59998C7.89276 7.59998 7.79104 7.64212 7.71604 7.71716L4.51603 10.9172C4.41394 11.018 4.37367 11.1658 4.41051 11.3044Z" fill="#19294D"/>
<path d="M6.41045 11.7045C6.4473 11.8431 6.55562 11.9514 6.69428 11.9883C6.83294 12.0251 6.98073 11.9849 7.08156 11.8828L11.0815 7.88279C11.1566 7.80779 11.1987 7.70607 11.1987 7.6C11.1987 7.49392 11.1566 7.3922 11.0815 7.3172C11.0065 7.24215 10.9048 7.20001 10.7987 7.20001C10.6927 7.20001 10.5909 7.24215 10.5159 7.3172L6.51597 11.3172C6.41387 11.418 6.37361 11.5658 6.41045 11.7045Z" fill="#19294D"/>
<path d="M8.41045 12.1045C8.4473 12.2431 8.55563 12.3514 8.69428 12.3883C8.83294 12.4251 8.98073 12.3849 9.08156 12.2828L13.4816 7.88279C13.5566 7.80779 13.5988 7.70607 13.5988 7.59999C13.5988 7.49392 13.5566 7.3922 13.4816 7.3172C13.4066 7.24215 13.3049 7.20001 13.1988 7.20001C13.0927 7.20001 12.991 7.24215 12.916 7.3172L8.51597 11.7172C8.41388 11.818 8.37361 11.9658 8.41045 12.1045Z" fill="#19294D"/>
<path d="M10.8104 12.1045C10.8473 12.2431 10.9556 12.3514 11.0942 12.3883C11.2329 12.4251 11.3807 12.3849 11.4815 12.2828L15.4815 8.28281C15.5565 8.20781 15.5987 8.1061 15.5987 8.00002C15.5987 7.89394 15.5565 7.79222 15.4815 7.71722C15.4065 7.64218 15.3048 7.60004 15.1987 7.60004C15.0926 7.60004 14.9909 7.64218 14.9159 7.71722L10.9159 11.7172C10.8138 11.818 10.7736 11.9658 10.8104 12.1045Z" fill="#19294D"/>
<path d="M13.2104 12.1045C13.2473 12.2432 13.3556 12.3515 13.4943 12.3883C13.6329 12.4252 13.7807 12.3849 13.8816 12.2828L17.4816 8.68284C17.5566 8.60784 17.5988 8.50612 17.5988 8.40004C17.5988 8.29397 17.5566 8.19225 17.4816 8.11725C17.4066 8.0422 17.3048 8.00006 17.1988 8.00006C17.0927 8.00006 16.9909 8.0422 16.916 8.11725L13.316 11.7172C13.2139 11.818 13.1736 11.9658 13.2104 12.1045Z" fill="#19294D"/>
<path d="M16.0104 11.7045C16.0473 11.8431 16.1556 11.9515 16.2943 11.9883C16.4329 12.0252 16.5807 11.9849 16.6815 11.8828L19.8815 8.68278C19.9566 8.60778 19.9987 8.50606 19.9987 8.39998C19.9987 8.29391 19.9566 8.19219 19.8815 8.11719C19.8065 8.04214 19.7048 8 19.5987 8C19.4927 8 19.3909 8.04214 19.3159 8.11719L16.1159 11.3172C16.0139 11.418 15.9736 11.5658 16.0104 11.7045Z" fill="#19294D"/>
<path d="M18.8096 11.3049C18.8464 11.4439 18.9549 11.5524 19.0939 11.5892C19.2329 11.626 19.3808 11.5854 19.4816 11.4828L21.0816 9.88284C21.1841 9.7821 21.2248 9.63407 21.188 9.49514C21.1512 9.35615 21.0426 9.24764 20.9037 9.21084C20.7647 9.17404 20.6167 9.21468 20.516 9.31725L18.916 10.9172C18.8134 11.018 18.7728 11.1659 18.8096 11.3049Z" fill="#19294D"/>
<path d="M9.17047 3.33555C9.41652 3.62951 9.41661 4.05752 9.17066 4.35157L9.01011 4.54338C8.91843 4.65293 8.89213 4.80307 8.94116 4.93727C8.99019 5.07147 9.1071 5.1693 9.24782 5.19391C9.38853 5.21852 9.53169 5.16621 9.62338 5.05666L9.78411 4.86485C10.2764 4.27718 10.2793 3.42194 9.79114 2.83085L9.78331 2.8211C9.53703 2.5272 9.53703 2.09899 9.78331 1.80509L10.7437 0.656652C10.8354 0.547011 10.8616 0.396824 10.8125 0.262621C10.7635 0.128418 10.6465 0.0305905 10.5057 0.00598117C10.3649 -0.0186282 10.2217 0.033778 10.13 0.143372L9.16972 1.29181C8.67721 1.87957 8.67435 2.73513 9.16288 3.32618L9.17047 3.33555Z" fill="#19294D"/>
<path d="M11.5704 3.33557C11.8165 3.62953 11.8166 4.05754 11.5706 4.35159L11.4101 4.5434C11.3184 4.65295 11.2921 4.80309 11.3411 4.93729C11.3901 5.07149 11.507 5.16932 11.6478 5.19393C11.7885 5.21854 11.9316 5.16623 12.0233 5.05668L12.1841 4.86487C12.6763 4.2772 12.6793 3.42196 12.1911 2.83087L12.1833 2.82112C11.937 2.52721 11.937 2.09901 12.1833 1.80511L13.1436 0.656672C13.2854 0.487219 13.2629 0.234938 13.0934 0.0931883C12.924 -0.0485614 12.6717 -0.0260614 12.5299 0.143391L11.5696 1.29183C11.0771 1.87959 11.0743 2.73515 11.5628 3.3262L11.5704 3.33557Z" fill="#19294D"/>
<path d="M13.9705 3.33557C14.2165 3.62953 14.2166 4.05754 13.9706 4.35159L13.8101 4.5434C13.6684 4.71276 13.6908 4.96494 13.8601 5.10669C14.0295 5.24844 14.2817 5.22604 14.4234 5.05668L14.5841 4.86487C15.0764 4.2772 15.0794 3.42196 14.5912 2.83087L14.5834 2.82112C14.3371 2.52721 14.3371 2.09901 14.5834 1.80511L15.5437 0.656672C15.6855 0.487219 15.663 0.234938 15.4935 0.0931883C15.3241 -0.0485614 15.0718 -0.0260614 14.93 0.143391L13.9697 1.29183C13.4772 1.87959 13.4743 2.73515 13.9629 3.3262L13.9705 3.33557Z" fill="#19294D"/>
</g>
<defs>
<clipPath id="clip0">
<rect width="24" height="24" fill="white"/>
</clipPath>
</defs>
</svg>
