<svg width="24" height="24" viewBox="0 0 24 24" fill="none" xmlns="http://www.w3.org/2000/svg">
<g clip-path="url(#clip0)">
<path d="M22.1628 1.84396C22.1567 1.83787 22.1504 1.8321 22.1443 1.82601C22.1437 1.8254 22.1431 1.82479 22.1424 1.82418C19.0461 -1.24333 13.379 -0.318434 9.34062 3.72C8.73794 4.32267 8.1941 4.9724 7.7178 5.65547C5.30701 5.29809 3.18512 5.89842 1.72777 7.35582C1.72205 7.36153 1.71666 7.36749 1.71099 7.37325C1.70986 7.37442 1.70869 7.37555 1.70761 7.37677C-1.21285 10.3302 -0.286501 16.2784 3.71631 20.2812C7.76932 24.3342 13.7253 25.186 16.6416 22.2697C16.6452 22.2661 16.6486 22.2624 16.6522 22.2588C16.654 22.2568 16.6559 22.2549 16.6578 22.253C18.1032 20.7961 18.698 18.6813 18.342 16.2796C19.025 15.8033 19.6748 15.2595 20.2775 14.6568C24.3369 10.5974 25.2453 4.92642 22.1628 1.84396ZM10.3349 4.71426C13.4619 1.58723 17.5774 0.597552 20.1985 2.09793L20.1668 2.10876C18.606 2.64013 17.2243 3.55748 16.1712 4.76175C15.1698 5.90672 14.465 7.31269 14.1227 8.84011C12.6406 7.49846 10.9469 6.51853 9.21199 5.99273C9.55446 5.54691 9.92998 5.11912 10.3349 4.71426ZM4.71053 19.2869C1.76279 16.3391 0.59447 12.0503 1.9936 9.3549C3.07393 12.5249 5.78547 14.8983 9.07071 15.5494C11.9003 16.1103 14.2176 18.161 15.1182 20.9015L15.3333 21.5562C12.8495 23.5489 8.02024 22.5966 4.71053 19.2869ZM16.3921 20.2847C15.2927 17.1523 12.609 14.8173 9.34399 14.1701C6.54878 13.6161 4.24192 11.5963 3.32354 8.89876L3.03901 8.06297C5.62023 5.94019 10.2983 6.9781 13.6588 10.3386C15.2853 11.9651 16.5511 14.075 16.9277 16.3344C17.1796 17.8461 16.9894 19.2077 16.3921 20.2847ZM18.0046 14.7854C17.4964 13.1084 16.5637 11.4701 15.2903 10.0241C15.352 9.80059 15.4066 9.57451 15.4516 9.34782C16.0119 6.52064 17.8957 4.36725 20.6199 3.43982L21.4564 3.15506C23.5723 5.70989 22.6706 10.2751 19.2831 13.6626C18.8783 14.0674 18.4504 14.443 18.0046 14.7854Z" fill="#19294D"/>
</g>
<defs>
<clipPath id="clip0">
<rect width="24" height="24" fill="white"/>
</clipPath>
</defs>
</svg>
