<svg width="20" height="18" viewBox="0 0 20 18" fill="none" xmlns="http://www.w3.org/2000/svg">
<path d="M17.2 4.6001H2.8C1.80589 4.6001 1 5.40599 1 6.4001V15.4001C1 16.3942 1.80589 17.2001 2.8 17.2001H17.2C18.1941 17.2001 19 16.3942 19 15.4001V6.4001C19 5.40599 18.1941 4.6001 17.2 4.6001Z" stroke="#859EAD" stroke-linecap="round" stroke-linejoin="round"/>
<path d="M13.6 17.2V2.8C13.6 2.32261 13.4104 1.86477 13.0728 1.52721C12.7352 1.18964 12.2774 1 11.8 1H8.2C7.72261 1 7.26478 1.18964 6.92721 1.52721C6.58964 1.86477 6.4 2.32261 6.4 2.8V17.2" stroke="#859EAD" stroke-linecap="round" stroke-linejoin="round"/>
</svg>
