<svg width="20" height="15" viewBox="0 0 20 15" fill="none" xmlns="http://www.w3.org/2000/svg">
<path d="M14.9102 5.90776H13.8796C13.5735 4.72253 12.9412 3.64691 12.0544 2.80311C11.1676 1.95931 10.0619 1.38116 8.86296 1.13437C7.664 0.88758 6.41985 0.982038 5.2719 1.40701C4.12394 1.83198 3.1182 2.57043 2.36896 3.53844C1.61971 4.50645 1.15702 5.66521 1.03344 6.88306C0.909856 8.1009 1.13035 9.32899 1.66986 10.4278C2.20938 11.5266 3.04628 12.452 4.08547 13.0989C5.12466 13.7458 6.32447 14.0883 7.54856 14.0874H14.9102C15.9949 14.0874 17.0351 13.6565 17.8021 12.8895C18.5691 12.1225 19 11.0822 19 9.99756C19 8.91288 18.5691 7.87262 17.8021 7.10563C17.0351 6.33865 15.9949 5.90776 14.9102 5.90776Z" stroke="#859EAD" stroke-linecap="round" stroke-linejoin="round"/>
</svg>
