<svg width="20" height="20" viewBox="0 0 20 20" fill="none" xmlns="http://www.w3.org/2000/svg">
<path d="M9.05138 2.89746H2.7892C2.31467 2.89746 1.85958 3.08596 1.52404 3.4215C1.1885 3.75704 1 4.21213 1 4.68666V17.211C1 17.6856 1.1885 18.1406 1.52404 18.4762C1.85958 18.8117 2.31467 19.0002 2.7892 19.0002H15.3136C15.7881 19.0002 16.2432 18.8117 16.5787 18.4762C16.9143 18.1406 17.1028 17.6856 17.1028 17.211V10.9488" stroke="#859EAD" stroke-linecap="round" stroke-linejoin="round"/>
<path d="M15.7609 1.55583C16.1168 1.19994 16.5995 1 17.1028 1C17.6061 1 18.0888 1.19994 18.4447 1.55583C18.8006 1.91173 19.0005 2.39442 19.0005 2.89773C19.0005 3.40104 18.8006 3.88373 18.4447 4.23963L9.94598 12.7383L6.36758 13.6329L7.26218 10.0545L15.7609 1.55583Z" stroke="#859EAD" stroke-linecap="round" stroke-linejoin="round"/>
</svg>
