<svg width="12" height="12" viewBox="0 0 12 12" fill="none" xmlns="http://www.w3.org/2000/svg">
<path d="M1 9.33333V6C1 4.67392 1.52678 3.40215 2.46447 2.46447C3.40215 1.52678 4.67392 1 6 1C7.32608 1 8.59785 1.52678 9.53553 2.46447C10.4732 3.40215 11 4.67392 11 6V9.33333" stroke="#859EAD" stroke-linecap="round" stroke-linejoin="round"/>
<path d="M11 9.88886C11 10.1835 10.8829 10.4662 10.6746 10.6745C10.4662 10.8829 10.1836 11 9.88889 11H9.33333C9.03865 11 8.75603 10.8829 8.54766 10.6745C8.33929 10.4662 8.22222 10.1835 8.22222 9.88886V8.2222C8.22222 7.92751 8.33929 7.64489 8.54766 7.43652C8.75603 7.22815 9.03865 7.11108 9.33333 7.11108H11V9.88886ZM1 9.88886C1 10.1835 1.11706 10.4662 1.32544 10.6745C1.53381 10.8829 1.81643 11 2.11111 11H2.66667C2.96135 11 3.24397 10.8829 3.45234 10.6745C3.66071 10.4662 3.77778 10.1835 3.77778 9.88886V8.2222C3.77778 7.92751 3.66071 7.64489 3.45234 7.43652C3.24397 7.22815 2.96135 7.11108 2.66667 7.11108H1V9.88886Z" stroke="#859EAD" stroke-linecap="round" stroke-linejoin="round"/>
</svg>
