<svg width="24" height="24" viewBox="0 0 24 24" fill="none" xmlns="http://www.w3.org/2000/svg">
<g clip-path="url(#clip0)">
<path d="M21.798 22.296C20.1019 18.5777 19.0893 13.2204 19.0893 7.96534C19.0893 5.84795 18.2766 3.85121 16.8008 2.34305C15.3224 0.83208 13.3636 0 11.2852 0C9.20679 0 7.24797 0.83208 5.76953 2.34305C4.29376 3.85116 3.48109 5.84795 3.48109 7.96534C3.48109 7.96966 3.48113 7.97397 3.48127 7.97824C3.59237 12.008 3.14293 13.9906 2.74641 15.7398C2.30471 17.6884 1.92324 19.3712 2.33776 23.1045C2.35637 23.2722 2.4638 23.417 2.61896 23.4835C3.43065 23.8311 4.13527 24 4.77306 24C5.557 24 6.11654 23.7538 6.65762 23.5157C7.08559 23.3274 7.48984 23.1495 8.00495 23.1019C8.04306 23.0983 8.08342 23.0965 8.125 23.0965C8.57711 23.0965 9.13614 23.2983 9.72794 23.5118C10.3912 23.7511 11.077 23.9986 11.7319 23.9985C11.8106 23.9985 11.8883 23.9949 11.9629 23.9877C12.5511 23.9313 13.1034 23.6934 13.6374 23.4634C14.147 23.244 14.6283 23.0367 15.0542 23.0278C16.1211 23.0064 16.7824 23.2388 17.4195 23.4636C17.9256 23.6422 18.4035 23.8108 18.9941 23.8108C18.9942 23.8108 18.9944 23.8108 18.9944 23.8108C19.7587 23.8107 20.5669 23.5271 21.6148 22.8911C21.8178 22.7678 21.8965 22.5121 21.798 22.296ZM18.9943 22.8736C18.9942 22.8736 18.9941 22.8736 18.994 22.8736C18.5639 22.8736 18.1964 22.7439 17.7313 22.5798C17.0839 22.3515 16.2732 22.0657 15.0347 22.0908C14.4258 22.1035 13.8365 22.3573 13.2667 22.6027C12.7774 22.8134 12.3153 23.0123 11.8733 23.0548C11.8283 23.0591 11.7807 23.0613 11.7318 23.0613C11.2408 23.0614 10.6334 22.8422 10.046 22.6303C9.40446 22.3988 8.74103 22.1594 8.125 22.1594C8.05478 22.1594 7.98536 22.1625 7.91861 22.1687C7.25186 22.2304 6.73567 22.4575 6.28023 22.6579C5.78645 22.8752 5.35998 23.0629 4.7731 23.0629C4.32742 23.0629 3.82374 22.9521 3.23959 22.7249C2.89112 19.3404 3.2484 17.7642 3.66034 15.9469C4.06885 14.1447 4.53188 12.102 4.41821 7.95892C4.42159 4.08652 7.50081 0.93708 11.2852 0.93708C15.0717 0.93708 18.1522 4.0899 18.1522 7.9653C18.1522 10.5785 18.3988 13.2836 18.8651 15.7881C19.3209 18.2361 19.962 20.4231 20.7728 22.2964C20.0611 22.689 19.4895 22.8735 18.9943 22.8736Z" fill="#19294D"/>
<path d="M8.05029 5.90112C7.01684 5.90112 6.17609 6.74188 6.17609 7.77533C6.17609 8.80879 7.01684 9.64954 8.05029 9.64954C9.08375 9.64954 9.9245 8.80879 9.9245 7.77533C9.9245 6.74192 9.0837 5.90112 8.05029 5.90112ZM8.05029 8.71242C7.53359 8.71242 7.11321 8.29204 7.11321 7.77533C7.11321 7.25863 7.53359 6.83825 8.05029 6.83825C8.567 6.83825 8.98737 7.25863 8.98737 7.77533C8.98737 8.29209 8.567 8.71242 8.05029 8.71242Z" fill="#19294D"/>
<path d="M13.2512 5.90112C12.2177 5.90112 11.377 6.74188 11.377 7.77533C11.377 8.80879 12.2177 9.64954 13.2512 9.64954C14.2846 9.64954 15.1254 8.80879 15.1254 7.77533C15.1254 6.74192 14.2846 5.90112 13.2512 5.90112ZM13.2512 8.71242C12.7345 8.71242 12.3141 8.29204 12.3141 7.77533C12.3141 7.25863 12.7345 6.83825 13.2512 6.83825C13.7679 6.83825 14.1883 7.25863 14.1883 7.77533C14.1883 8.29209 13.7679 8.71242 13.2512 8.71242Z" fill="#19294D"/>
<path d="M7.34196 18.0482C7.08461 18.0226 6.85502 18.2109 6.82957 18.4684C6.73647 19.4098 6.56575 20.1598 6.33592 20.637C6.22366 20.8702 6.32167 21.1502 6.55483 21.2624C6.62036 21.294 6.6896 21.3089 6.75775 21.3089C6.93213 21.3089 7.09957 21.2112 7.18028 21.0435C7.46107 20.4604 7.65686 19.625 7.76214 18.5606C7.7876 18.3031 7.59949 18.0737 7.34196 18.0482Z" fill="#19294D"/>
<path d="M7.36723 16.764C7.10858 16.764 6.89886 16.9736 6.89862 17.2322L6.89858 17.2458C6.89647 17.5046 7.10455 17.7161 7.36334 17.7182C7.36461 17.7182 7.36592 17.7182 7.36719 17.7182C7.6242 17.7182 7.8336 17.5109 7.83566 17.2534L7.83575 17.2324C7.83561 16.9738 7.62589 16.7641 7.36723 16.764Z" fill="#19294D"/>
<path d="M17.483 20.2051C16.4948 18.7013 16.4361 15.3894 16.4355 15.3489C16.432 15.0902 16.2199 14.8835 15.9606 14.8868C15.7019 14.8902 15.4949 15.1028 15.4985 15.3616C15.5004 15.5088 15.5602 18.9856 16.6999 20.7198C16.7899 20.8568 16.9394 20.9311 17.0919 20.9311C17.1802 20.9311 17.2695 20.9061 17.3488 20.8541C17.565 20.7119 17.6251 20.4214 17.483 20.2051Z" fill="#19294D"/>
</g>
<defs>
<clipPath id="clip0">
<rect width="24" height="24" fill="white"/>
</clipPath>
</defs>
</svg>
