<svg width="24" height="24" viewBox="0 0 24 24" fill="none" xmlns="http://www.w3.org/2000/svg">
<path d="M24.0001 5.43885C24.0002 4.36306 23.6812 3.31143 23.0835 2.41696C22.4858 1.52249 21.6362 0.825374 20.6423 0.413786C19.6484 0.00219768 18.5547 -0.105371 17.4996 0.104685C16.4445 0.314742 15.4755 0.832987 14.7149 1.59387L14.174 2.13621C13.8725 1.89146 13.4911 1.76702 13.1032 1.78688C12.7154 1.80674 12.3487 1.96949 12.0737 2.24374L10.9281 3.38938C10.6535 3.66392 10.4904 4.03054 10.4704 4.41834C10.4505 4.80614 10.575 5.18757 10.8199 5.48887L5.48971 10.8193C5.18813 10.5749 4.80679 10.4507 4.41912 10.4707C4.03146 10.4907 3.66489 10.6534 3.39002 10.9275L2.24438 12.0731C1.96967 12.3478 1.80661 12.7146 1.78674 13.1026C1.76688 13.4905 1.89162 13.8721 2.13684 14.1734L1.59329 14.7141C0.573161 15.7342 3.79811e-05 17.1177 1.8877e-09 18.5604C-3.79773e-05 20.003 0.573013 21.3866 1.59309 22.4067C2.61316 23.4268 3.9967 24 5.43934 24C6.88198 24 8.26555 23.427 9.28568 22.4069L9.82863 21.8652C10.1303 22.1092 10.5115 22.2331 10.8989 22.213C11.2864 22.1929 11.6527 22.0303 11.9275 21.7564L13.0731 20.6106C13.3477 20.3361 13.5108 19.9695 13.5308 19.5817C13.5508 19.194 13.4262 18.8126 13.1813 18.5113L18.5115 13.1809C18.8131 13.4252 19.1945 13.5493 19.5821 13.5293C19.9697 13.5094 20.3363 13.3467 20.6112 13.0727L21.7569 11.9269C22.0313 11.6525 22.1943 11.2861 22.2144 10.8985C22.2345 10.511 22.1102 10.1297 21.8656 9.8284L22.4069 9.28545C22.9136 8.78145 23.3153 8.18198 23.5888 7.52171C23.8622 6.86145 24.0021 6.15351 24.0001 5.43885ZM17.5151 7.4707L16.5305 6.48627L16.9197 6.01866L17.9826 7.08167L17.5151 7.4707ZM18.8702 9.82799L18.5127 10.1856L13.8158 5.48867L14.1732 5.13123L18.8702 9.82799ZM12.6811 18.0105C12.3837 17.7681 12.0077 17.6432 11.6244 17.6595C11.2411 17.6758 10.8771 17.8322 10.6014 18.099L9.247 16.7447L9.96188 16.1485C9.99967 16.117 10.0305 16.0779 10.0523 16.0338C10.0742 15.9897 10.0866 15.9415 10.0888 15.8924C10.091 15.8432 10.083 15.7941 10.0652 15.7482C10.0474 15.7023 10.0202 15.6606 9.98538 15.6258L8.37537 14.016C8.34056 13.9812 8.29889 13.9541 8.253 13.9362C8.20711 13.9184 8.15802 13.9104 8.10884 13.9126C8.05967 13.9148 8.01149 13.9272 7.96739 13.9491C7.92328 13.9709 7.88421 14.0017 7.85267 14.0395L7.25667 14.7546L5.90244 13.4004C6.16911 13.1246 6.32541 12.7606 6.34172 12.3774C6.35803 11.9941 6.23322 11.6182 5.99094 11.3207L11.321 5.99051C11.602 6.21939 11.9537 6.34389 12.3161 6.34286C12.6786 6.34182 13.0295 6.21532 13.3093 5.98484L14.7923 7.46786L14.3148 8.0418C14.2582 8.1097 14.2291 8.19631 14.2331 8.28461C14.2372 8.3729 14.2741 8.45648 14.3366 8.51893L15.4829 9.66537C15.5454 9.72783 15.6291 9.76467 15.7174 9.76868C15.8057 9.77268 15.8923 9.74357 15.9602 9.68704L16.5337 9.20931L18.0174 10.6919C17.7869 10.9717 17.6604 11.3227 17.6593 11.6852C17.6583 12.0477 17.7828 12.3994 18.0117 12.6804L12.6811 18.0105ZM9.73952 18.9587L5.04275 14.2617L5.40222 13.9022L10.099 18.5992L9.73952 18.9587ZM6.52254 16.7439L7.25748 17.4787L6.98428 17.7059L6.29572 17.0173L6.52254 16.7439ZM8.74395 16.2415L7.75992 15.2575L8.14855 14.7917L9.20994 15.8529L8.74395 16.2415ZM15.2956 7.97031L16.0305 8.70524L15.7553 8.9349L15.0667 8.24634L15.2956 7.97031ZM11.4293 3.89061L12.5748 2.74538C12.7363 2.58418 12.9552 2.49364 13.1834 2.49364C13.4116 2.49364 13.6305 2.58418 13.7921 2.74538L13.928 2.88127L13.9298 2.88329L13.9318 2.88511L14.0661 3.01918C14.2274 3.18068 14.318 3.39959 14.318 3.62784C14.318 3.8561 14.2274 4.07501 14.0661 4.23651L12.9202 5.38194C12.8403 5.46188 12.7455 5.52529 12.641 5.56855C12.5366 5.61181 12.4247 5.63408 12.3117 5.63408C12.1987 5.63408 12.0867 5.61181 11.9823 5.56855C11.8779 5.52529 11.783 5.46188 11.7031 5.38194L11.4293 5.10814C11.3494 5.02823 11.286 4.93336 11.2427 4.82894C11.1995 4.72452 11.1772 4.6126 11.1772 4.49958C11.1772 4.38655 11.1995 4.27463 11.2427 4.17021C11.286 4.0658 11.3494 3.97092 11.4293 3.89102V3.89061ZM2.74561 12.5743L3.89104 11.4287C4.05259 11.2675 4.27149 11.177 4.49971 11.177C4.72792 11.177 4.94682 11.2675 5.10837 11.4287L5.38238 11.7025C5.54367 11.864 5.63428 12.0829 5.63428 12.3112C5.63428 12.5394 5.54367 12.7583 5.38238 12.9198L4.23654 14.0661C4.15664 14.146 4.06177 14.2095 3.95735 14.2527C3.85293 14.296 3.74101 14.3183 3.62797 14.3183C3.51494 14.3183 3.40302 14.296 3.29859 14.2527C3.19417 14.2095 3.09931 14.146 3.01941 14.0661L2.88454 13.9312L2.74763 13.7945C2.66769 13.7146 2.60428 13.6197 2.56102 13.5152C2.51775 13.4108 2.49548 13.2989 2.49548 13.1858C2.49548 13.0728 2.51775 12.9608 2.56102 12.8564C2.60428 12.752 2.66769 12.6571 2.74763 12.5772L2.74561 12.5743ZM8.78567 21.9059C7.89855 22.7931 6.69533 23.2916 5.44068 23.2917C4.18604 23.2917 2.98275 22.7934 2.09553 21.9063C1.20831 21.0192 0.709832 19.816 0.709756 18.5613C0.70968 17.3067 1.20801 16.1034 2.09513 15.2162L2.63807 14.6736C2.90207 14.8885 3.22886 15.0116 3.56903 15.0243C3.9092 15.037 4.24424 14.9385 4.5235 14.7439L6.01929 16.2399L5.54378 16.8116C5.4872 16.8795 5.45808 16.9661 5.46212 17.0544C5.46617 17.1427 5.5031 17.2263 5.56565 17.2887L6.7119 18.435C6.77437 18.4975 6.85799 18.5345 6.94632 18.5385C7.03465 18.5425 7.12129 18.5134 7.18923 18.4568L7.76073 17.9811L9.25652 19.4771C9.06166 19.7566 8.96322 20.092 8.97612 20.4325C8.98902 20.773 9.11256 21.1 9.32801 21.364L8.78567 21.9059ZM12.5727 20.1102L11.4271 21.2554C11.2655 21.4165 11.0467 21.507 10.8185 21.507C10.5904 21.507 10.3715 21.4165 10.21 21.2554L10.0765 21.1221L10.0749 21.1199L10.0727 21.1181L9.93596 20.9814C9.85603 20.9015 9.79262 20.8066 9.74936 20.7022C9.70609 20.5978 9.68383 20.4859 9.68383 20.3728C9.68383 20.2598 9.70609 20.1479 9.74936 20.0435C9.79262 19.9391 9.85603 19.8442 9.93596 19.7643L11.0816 18.6186C11.1615 18.5387 11.2564 18.4753 11.3608 18.432C11.4653 18.3888 11.5772 18.3665 11.6903 18.3665C11.8033 18.3665 11.9152 18.3888 12.0197 18.432C12.1241 18.4753 12.219 18.5387 12.2989 18.6186L12.5727 18.8926C12.6527 18.9725 12.7161 19.0674 12.7593 19.1718C12.8026 19.2763 12.8249 19.3882 12.8249 19.5012C12.8249 19.6142 12.8026 19.7261 12.7593 19.8306C12.7161 19.935 12.6527 20.0299 12.5727 20.1098V20.1102ZM21.2564 11.4265L20.1108 12.5721C19.9492 12.7332 19.7304 12.8236 19.5022 12.8236C19.2741 12.8236 19.0552 12.7332 18.8937 12.5721L18.6197 12.2983C18.5397 12.2184 18.4763 12.1235 18.4331 12.019C18.3898 11.9146 18.3675 11.8027 18.3675 11.6896C18.3675 11.5766 18.3898 11.4647 18.4331 11.3602C18.4763 11.2558 18.5397 11.1609 18.6197 11.081L19.7653 9.93553C19.8452 9.85552 19.9401 9.79204 20.0445 9.74873C20.1489 9.70542 20.2609 9.68313 20.374 9.68313C20.487 9.68313 20.599 9.70542 20.7034 9.74873C20.8079 9.79204 20.9028 9.85552 20.9826 9.93553L21.1203 10.073H21.1214L21.2556 10.2071C21.3356 10.287 21.399 10.3819 21.4422 10.4864C21.4855 10.5908 21.5078 10.7027 21.5078 10.8158C21.5078 10.9288 21.4855 11.0407 21.4422 11.1452C21.399 11.2496 21.3356 11.3445 21.2556 11.4244L21.2564 11.4265ZM21.3654 9.32737C21.0844 9.09824 20.7327 8.97351 20.3702 8.97439C20.0076 8.97528 19.6565 9.10173 19.3767 9.33223L18.0184 7.97395L18.7345 7.37795C18.7724 7.34645 18.8033 7.3074 18.8252 7.26329C18.8471 7.21918 18.8596 7.17098 18.8619 7.12177C18.8641 7.07256 18.8561 7.02343 18.8383 6.9775C18.8204 6.93157 18.7932 6.88987 18.7584 6.85505L17.1464 5.24302C17.1115 5.20817 17.0698 5.18097 17.0239 5.16316C16.978 5.14534 16.9288 5.1373 16.8796 5.13955C16.8304 5.1418 16.7822 5.15429 16.7381 5.17622C16.694 5.19815 16.655 5.22904 16.6235 5.26691L16.0273 5.98301L14.6692 4.62494C14.8994 4.34522 15.0257 3.99449 15.0268 3.63223C15.0279 3.26998 14.9036 2.91851 14.6751 2.63744L15.2164 2.09489C16.1061 1.21984 17.3055 0.731775 18.5533 0.736995C19.8012 0.742214 20.9965 1.2403 21.8788 2.12276C22.7612 3.00523 23.2591 4.20058 23.2641 5.44847C23.2691 6.69636 22.7809 7.89569 21.9057 8.78524L21.3654 9.32737Z" fill="#19294D"/>
<path d="M22.4568 3.80212C22.4203 3.71548 22.3509 3.64688 22.2639 3.61141C22.1768 3.57594 22.0792 3.5765 21.9926 3.61297C21.906 3.64944 21.8374 3.71883 21.8019 3.80588C21.7664 3.89293 21.767 3.9905 21.8034 4.07714C22.0178 4.59046 22.1079 5.14716 22.0664 5.7019C22.0249 6.25663 21.8529 6.79372 21.5645 7.26941C21.5395 7.30911 21.5226 7.35338 21.5149 7.39964C21.5072 7.44591 21.5087 7.49325 21.5194 7.53892C21.5301 7.58459 21.5497 7.62768 21.5772 7.6657C21.6047 7.70372 21.6394 7.73591 21.6794 7.76039C21.7195 7.78488 21.7639 7.80118 21.8103 7.80835C21.8566 7.81552 21.904 7.81342 21.9495 7.80217C21.995 7.79091 22.0379 7.77073 22.0756 7.74279C22.1132 7.71485 22.145 7.67971 22.169 7.6394C22.5162 7.06779 22.7232 6.42218 22.7732 5.75528C22.8232 5.08839 22.7148 4.41911 22.4568 3.80212Z" fill="#19294D"/>
</svg>
