<svg width="13" height="12" viewBox="0 0 13 12" fill="none" xmlns="http://www.w3.org/2000/svg">
<path d="M1 1H4.33333C4.9227 1 5.48793 1.23413 5.90468 1.65087C6.32143 2.06762 6.55556 2.63285 6.55556 3.22222V11C6.55556 10.558 6.37996 10.134 6.0674 9.82149C5.75484 9.50893 5.33092 9.33333 4.88889 9.33333H1V1Z" stroke="#859EAD" stroke-linecap="round" stroke-linejoin="round"/>
<path d="M12.1111 1H8.77776C8.18839 1 7.62316 1.23413 7.20642 1.65087C6.78967 2.06762 6.55554 2.63285 6.55554 3.22222V11C6.55554 10.558 6.73114 10.134 7.0437 9.82149C7.35626 9.50893 7.78018 9.33333 8.22221 9.33333H12.1111V1Z" stroke="#859EAD" stroke-linecap="round" stroke-linejoin="round"/>
</svg>
