<svg width="13" height="13" viewBox="0 0 13 13" fill="none" xmlns="http://www.w3.org/2000/svg">
<path d="M11.4998 6.54614V5.00011C11.4998 4.47586 11.0932 4.04952 10.5794 4.00818L9.14369 1.5004C9.01064 1.26847 8.79579 1.1027 8.53871 1.03387C8.28285 0.965499 8.01529 1.0014 7.78628 1.13469L2.86442 4.00011H1.99999C1.44849 4.00011 1 4.44858 1 5.00011V11C1 11.5515 1.44847 12 1.99999 12H10.4999C11.0514 12 11.4998 11.5515 11.4998 11V9.45398C11.7902 9.35043 11.9998 9.07554 11.9998 8.75004V7.25007C11.9998 6.92457 11.7902 6.64968 11.4998 6.54614ZM9.99847 4.00011H7.81949L9.45374 3.04866L9.99847 4.00011ZM9.20533 2.61477L6.82578 4.00011H5.83878L8.95854 2.18374L9.20533 2.61477ZM8.03798 1.5668C8.15101 1.50064 8.28308 1.48306 8.40931 1.51676C8.537 1.55093 8.64345 1.63346 8.70961 1.74893L8.71013 1.74985L4.84511 4.00011H3.85816L8.03798 1.5668ZM10.9998 11C10.9998 11.2756 10.7755 11.5 10.4999 11.5H1.99999C1.72437 11.5 1.50001 11.2756 1.50001 11V5.00011C1.50001 4.72448 1.72437 4.50012 1.99999 4.50012H10.4999C10.7755 4.50012 10.9998 4.72448 10.9998 5.00011V6.50008H9.49987C8.67272 6.50008 7.99989 7.17291 7.99989 8.00006C7.99989 8.8272 8.67272 9.50003 9.49987 9.50003H10.9998V11ZM11.4998 8.75004C11.4998 8.88797 11.3878 9.00005 11.2498 9.00005H9.49987C8.94837 9.00005 8.49987 8.55158 8.49987 8.00006C8.49987 7.44856 8.94834 7.00006 9.49987 7.00006H11.2498C11.3878 7.00006 11.4998 7.11212 11.4998 7.25007V8.75004Z" fill="#859EAD" stroke="#859EAD" stroke-width="0.5"/>
</svg>
