<svg width="1280" height="429" viewBox="0 0 1280 429" fill="none" xmlns="http://www.w3.org/2000/svg">
<path d="M428.167 71.9999C98 205.5 0 79 0 79V355C43 226.5 208.58 255 299.617 338.5C439.172 466.5 566.722 400 691.77 290C816.819 180 966.378 151.5 999.39 318C1025.8 451.2 1248.49 465 1280 354V77.9999C1226.98 17.5 1192.47 11.5 1146.95 11.5C1095.95 11.5 1066.42 59.4999 1042.41 79.9999C1018.4 100.5 938.867 106 889.348 34.4999C839.828 -37.0001 807.316 23.9999 800.813 34.4999C794.31 44.9999 784.807 85.4999 739.289 59.4999C693.771 33.4999 654.207 -19.3972 428.167 71.9999Z" fill="#E0E7EB"/>
</svg>
