<svg width="297" height="312" viewBox="0 0 297 312" fill="none" xmlns="http://www.w3.org/2000/svg">
<path d="M194.453 108.914C195.378 100.176 185.815 85.1232 167.556 90.866C149.919 96.4132 131.421 130.413 157.7 134.426C182.469 138.207 178.213 151.577 187.552 153.951C195.14 155.88 203.788 147.402 194.313 133.126C191.057 128.22 193.76 115.461 194.453 108.914Z" fill="#20DFB2"/>
<path d="M28.0177 168.537C48.1729 178.597 44.2346 201.636 39.746 211.898C22.3708 241.818 57.1212 242.251 63.2025 226.641C69.2838 211.031 67.1119 253.092 94.9123 257.861C122.713 262.631 100.125 207.562 87.5278 206.261C74.9308 204.961 55.3837 198.89 67.1119 142.087C78.8402 85.2833 37.1397 102.628 39.746 119.972C42.3523 137.317 34.0991 136.016 15.8551 132.114C-2.38887 128.211 2.82369 155.962 28.0177 168.537Z" fill="#3C9FF6"/>
<path d="M198.876 173.185C227.292 176.171 221.933 225.854 215.701 250.322C215.701 281.426 274.279 258.409 219.44 293.867C164.601 329.325 148.399 272.717 138.428 240.991C128.457 209.266 188.282 200.557 155.254 176.918C122.225 153.279 139.051 130.885 148.399 143.326C157.746 155.767 163.355 169.453 198.876 173.185Z" fill="#D2F9F0"/>
<path d="M255.978 141.752C235.176 140.304 231.992 157.246 232.999 165.898C210.02 190.044 251.141 206.946 251.141 199.098C251.141 191.251 255.978 177.367 279.562 187.629C303.146 197.891 299.517 177.367 287.423 165.898C275.329 154.429 281.981 143.563 255.978 141.752Z" fill="#2AC4D4"/>
<path d="M115.027 51.4497C105.02 25.2859 82.2645 28.259 72.1378 33.0161C29.2486 44.3141 39.3752 70.4779 49.5019 72.2618C59.6285 74.0457 68.5637 85.3437 75.712 122.806C82.8602 160.267 92.9868 131.13 92.9868 127.563C92.9868 123.995 91.7954 110.318 123.962 111.508C156.129 112.697 143.024 87.7223 137.067 85.3437C131.111 82.9652 127.536 84.1545 115.027 51.4497Z" fill="#D2F9F0"/>
<path d="M147.892 61.0617C144.342 61.0617 142.304 53.8428 141.729 50.2333L144.194 44.0808H157.26L169.833 69.429C170.327 72.7924 170.721 79.8637 168.354 81.2418C165.396 82.9645 163.177 74.5971 162.437 66.722C161.698 58.8468 152.329 61.0617 147.892 61.0617Z" fill="#E0E7EB" stroke="#0C1527" stroke-linecap="round" stroke-linejoin="round"/>
<path d="M124.2 125.972L121.484 122.99H119.991C118.796 126.568 113.609 129.722 111.165 130.851L113.473 136.002C113.654 136.679 115.211 139.011 119.991 142.914C125.965 147.793 125.557 143.456 126.644 142.914C127.73 142.372 120.805 134.104 119.991 130.851C119.339 128.249 122.525 126.514 124.2 125.972Z" fill="#E0E7EB" stroke="#0C1527" stroke-linecap="round" stroke-linejoin="round"/>
<path d="M201.648 195.926C201.275 192.946 198.072 194.684 196.518 195.926C195.025 194.932 197.14 193.857 198.383 193.443C201.99 191.456 209.213 184.856 212.374 181.804L210.819 199.805C210.146 202.081 208.612 207.254 207.866 209.737C206.933 212.84 205.69 215.168 204.446 215.944C203.202 216.72 201.648 222.616 198.383 229.755C195.119 236.893 192.787 237.669 193.098 235.807C193.409 233.945 200.249 222.772 201.648 218.116C203.047 213.461 203.358 205.857 201.648 204.305C199.938 202.754 202.114 199.65 201.648 195.926Z" fill="#0C1527"/>
<path d="M84.0507 281.832C83.9717 281.195 83.9104 280.615 83.8694 280.164C83.9878 280.776 84.0455 281.324 84.0507 281.832C84.2926 283.779 84.7006 286.252 85.2034 287.156C86.0372 288.654 89.3723 288.987 88.3717 293.148C87.3712 297.31 81.8683 296.81 82.8688 301.804C83.8694 306.798 76.1987 305.966 78.8667 295.978C81.2188 287.173 84.0893 285.613 84.0507 281.832Z" fill="#0C1527"/>
<path d="M227.078 201.119C228.347 196.969 230.846 201.465 231.937 204.232L224.869 238.268C221.889 247.262 215.416 266.244 213.366 270.229C210.803 275.21 208.236 277.7 205.95 278.116C203.663 278.531 204.702 272.512 208.236 270.229C211.771 267.946 219.879 248.853 221.75 237.023C223.621 225.194 225.492 206.308 227.078 201.119Z" fill="#0C1527"/>
<path fill-rule="evenodd" clip-rule="evenodd" d="M69.9445 149.615C69.7557 146.6 68.0565 148.359 67.2305 149.615L66.8636 150.221L63.5408 153.639V157.354L64.2852 167.757C64.3846 167.856 64.509 167.974 64.6548 168.104C64.7441 171.451 63.2863 175.868 62.5164 177.722L69.9776 183.155L65.7807 180.203V182.921C66.7419 189.585 68.2798 203.679 66.7419 206.749C67.7565 210.747 70.01 218.871 70.9071 219.383C71.4301 219.681 71.4714 219.144 71.5173 218.545C71.6501 216.818 71.8222 214.577 83.7231 230.417C87.0873 234.894 87.4077 238.253 87.7281 243.05C88.0485 247.848 91.5729 250.087 91.4127 246.568C91.2846 243.754 88.1553 223.007 86.6067 212.986L82.6547 192.314L83.0421 192.608C79.6596 180.554 72.7292 156.376 72.0684 156.093C71.2424 155.74 70.1805 153.384 69.9445 149.615ZM32.2739 170.476C33.4648 170.872 36.1189 172.344 37.2077 175.062C38.5688 178.458 41.1208 184.233 43.1624 184.912C45.2039 185.591 45.3741 186.27 44.8637 188.478C44.3533 190.686 44.8637 197.989 46.7351 201.895C48.2213 204.997 50.5659 217.524 51.809 224.167L51.8091 224.167L51.8091 224.167L51.8092 224.167C52.1313 225.889 52.3795 227.215 52.5196 227.879C52.5943 228.234 52.7183 228.87 52.885 229.727L52.885 229.727C54.2362 236.67 58.3936 258.031 61.8769 260.147C62.5378 260.549 63.3249 260.96 64.1776 261.406C68.3731 263.598 74.1551 266.619 74.2965 273.394C74.4579 281.125 69.2633 278.164 67.4206 277.113C67.3203 277.056 67.23 277.004 67.151 276.961C65.926 276.281 59.495 266.601 56.4327 261.846L49.6274 239.088L46.7351 215.142L41.9568 193.573L40.9506 187.289L32.2739 170.476ZM91.057 199.43C91.1608 196.113 87.1201 193.729 85.0868 192.952C83.2985 192.077 86.1192 201.5 87.6547 206.63C87.7568 206.971 87.8532 207.293 87.9421 207.592C88.6118 209.841 88.3677 210.949 88.0536 212.374C87.6981 213.988 87.2531 216.008 87.9421 220.548C88.9804 227.388 91.2301 240.068 92.2251 245.552C92.6145 244.559 94.2238 240.422 97.5464 231.819C101.163 222.455 100.745 216.038 100.49 212.141V212.141C100.453 211.563 100.418 211.04 100.402 210.572C100.272 206.944 95.0804 206.037 93.3932 208.758C91.706 211.479 90.9272 203.576 91.057 199.43ZM76.2275 279.145C78.3959 277.359 82.7651 272.522 82.8952 267.457C83.0579 261.125 88.7132 253.658 89.9512 252.359C90.9416 251.32 92.2734 250.303 92.8155 249.924L84.0336 273.301L80.9437 276.872L76.2275 279.145Z" fill="#0C1527"/>
<path d="M114.298 109.92C113.822 109.09 111.525 100.084 110.435 95.685C106.573 97.7609 105.236 89.6054 103.664 86.3432C102.093 83.0838 102.71 81.4527 103.662 78.9355L103.664 78.9291C104.617 76.4083 106.722 81.7465 108.059 83.3776C109.395 85.0087 109.098 77.1497 108.059 72.5529C107.019 67.9562 110.435 63.0628 113.258 64.3974C116.08 65.7319 118.605 62.4697 118.754 59.8006C118.902 57.1315 120.239 52.5347 122.913 55.9453C125.587 59.3558 130.935 61.7283 131.232 57.4281C131.529 53.1279 135.837 55.9453 138.956 58.1695C142.075 60.3937 142.67 52.9796 144.452 49.2725C146.235 45.5655 150.394 51.6451 154.85 55.9453C159.307 60.2454 161.089 56.8349 164.209 59.8006C166.704 62.1731 167.922 72.3552 168.219 77.1497C169.527 74.6585 171.24 78.1877 171.933 80.2636C172.646 89.6351 168.665 94.4493 166.585 95.685C166.585 97.3457 165.001 103.495 164.209 106.361C163.912 112.886 168.814 112.737 174.161 111.551C178.469 113.182 181.885 109.92 181.44 107.399C180.994 104.879 179.063 102.654 179.212 95.685C179.36 88.7156 180.994 90.94 182.628 93.6091C184.262 96.2782 190.204 95.685 187.679 89.6054C185.153 83.5259 187.679 85.7501 192.284 84.5638C196.889 83.3776 194.363 77.1497 193.621 68.5493C192.878 59.9489 198.225 66.325 200.305 67.0665C202.385 67.8079 199.859 59.0592 196.591 55.0556C193.323 51.0519 196.443 49.7174 198.225 47.4931C200.008 45.2689 198.077 41.4135 194.363 39.1893C190.65 36.9651 193.323 36.5202 185.451 23.7679C177.578 11.0156 160.941 9.23618 157.078 11.9053C153.216 14.5744 148.314 11.9053 149.057 9.23618C149.8 6.56708 149.206 3.00833 144.304 1.08065C139.402 -0.847025 143.709 7.45681 142.818 11.9053C141.927 16.3538 144.452 4.78772 127.815 3.00833C111.178 1.22894 115.783 14.4261 117.12 15.3158C118.457 16.2055 131.826 16.3538 112.218 17.8366C92.6099 19.3195 88.1536 30.5889 88.8963 32.5166C89.639 34.4443 87.7079 36.9651 82.3603 42.8964C77.0127 48.8277 74.7845 55.9452 78.7952 56.3901C82.8059 56.8349 83.5487 55.2038 80.7263 62.3214C77.904 69.439 79.835 77.0014 82.3603 79.6705C84.8856 82.3396 87.5594 75.6668 85.6283 83.9706C83.6972 92.2745 88.8963 102.358 96.9177 103.247C104.939 104.137 104.642 108.141 110.435 112.737C115.07 116.415 114.941 112.391 114.298 109.92Z" fill="#0C1527"/>
<path d="M104.401 82.6105C103.503 79.6416 102.811 80.3465 102.577 81.0701C101.314 85.1313 104.401 91.7134 104.401 89.4727C104.401 87.232 105.383 88.6325 107.207 90.523C109.03 92.4136 109.521 89.8228 108.61 87.022C107.698 84.2211 106.505 82.9607 106.084 84.5012C105.663 86.0416 105.523 86.3217 104.401 82.6105Z" fill="#0C1527"/>
<path d="M167.722 84.924V73.177L170.761 69.6763L174.891 74.8885L171.696 87.6468C171.8 87.0504 171.665 84.9084 170.293 81.112C168.579 76.3666 167.722 86.8688 167.722 84.924Z" fill="#0C1527"/>
<path d="M167.09 88.7395C167.642 87.6128 168.866 85.6599 169.347 86.8617C169.949 88.3639 167.692 90.6173 167.09 88.7395Z" fill="#0C1527"/>
<path d="M111.261 104.411C114.888 114.464 126.748 135.394 140.101 135.309C153.454 135.225 163.651 113.199 166.511 102.302" stroke="#0C1527" stroke-width="2.2" stroke-linecap="round" stroke-linejoin="round"/>
<path d="M120.615 122.206C119.394 124.259 115.911 128.711 111.747 130.096C106.542 131.828 98.4452 133.753 95.168 135.677C91.8908 137.601 72.2274 139.911 67.6007 148.763C66.3155 149.982 63.7066 153.266 63.5523 156.653C62.9097 154.985 61.5474 150.148 61.239 144.144C60.8534 136.639 59.3112 133.56 56.2268 138.179C53.7592 141.873 53.9135 149.597 54.299 152.996C53.5279 154.087 50.5591 154.459 44.8529 147.223C37.7201 138.179 30.9729 123.746 27.5029 122.206C24.0328 120.667 19.9845 120.474 21.5267 123.553C22.7605 126.017 29.2485 137.059 32.3383 142.273C33.4174 144.059 34.6275 146.934 30.8354 144.144C27.0432 141.355 19.3895 132.194 16.0367 127.962C14.4952 126.269 10.6953 123.322 7.82805 125.077C7.28851 125.885 6.94936 127.962 9.9091 129.809C12.8688 131.655 15.9211 136.158 17.0772 138.179C18.6187 140.68 22.1411 145.992 23.8985 147.223C23.6287 147.475 22.1643 147.211 18.4646 144.144C13.84 140.311 9.56227 134.079 5.63138 133.617C1.70048 133.155 1.35362 136.903 2.74099 137.541C4.12837 138.179 11.4121 145.684 12.6839 147.223C13.9556 148.763 21.0081 155.683 23.8985 156.653C22.5882 156.825 19.1814 156.753 16.0367 155.083C12.1058 152.996 7.3656 150.707 5.0533 151.852C2.74099 152.996 5.28452 155.083 6.55629 155.083C7.82805 155.083 15.6898 160.854 17.0772 161.662C18.4646 162.47 22.1643 164.085 23.8985 164.316C25.6327 164.547 30.6041 166.163 32.3383 171.125C34.0725 176.088 39.2752 184.282 40.4313 186.129C41.5875 187.975 41.8576 189.851 42.5124 193.284C43.1672 196.717 48.4036 223.693 48.4036 226.875C48.4036 230.057 53.7983 275.342 73.4157 279.993C75.0505 280.401 79.6945 279.465 82.7339 275.097C83.8707 276.685 84.8918 279.308 82.7339 285.378C80.0365 292.967 76.3583 304.716 75.8678 310.101H203.381C202.073 301.534 198.967 283.371 197.005 279.259C200.111 280.809 207.549 281.413 212.454 271.426C218.584 258.942 229.128 236.422 231.826 198.725C232.365 195.126 234.654 186.774 239.492 182.16C245.539 176.392 255.617 161.502 267.173 157.612C270.443 156.271 276.956 153.4 276.848 152.649C276.714 151.71 274.967 148.893 271.07 150.771C267.173 152.649 258.573 158.283 256.557 157.612C254.542 156.942 257.767 154.795 258.439 154.259C259.11 153.722 265.964 146.479 267.173 143.796C268.382 141.113 271.473 138.565 272.011 138.162C272.548 137.76 274.698 134.406 272.011 133.602C269.323 132.797 263.41 138.565 261.664 141.516C260.266 143.877 256.96 146.971 255.482 148.223C258.08 144.78 263.357 137.465 263.679 135.748C264.082 133.602 267.845 129.041 268.92 128.102C269.995 127.163 269.457 123.273 265.56 125.687C261.664 128.102 256.423 136.821 255.482 138.162C254.542 139.504 248.629 145.674 247.42 146.211C246.21 146.747 249.839 143.125 250.51 141.516C251.182 139.906 259.648 130.516 259.782 128.102C259.917 125.687 258.976 124.883 256.557 126.492C254.139 128.102 232.907 149.698 230.623 150.771C228.338 151.844 224.038 157.076 223.904 152.649C223.77 148.223 224.307 140.845 219.47 139.504C214.632 138.162 216.648 146.479 216.648 149.564C216.648 152.032 215.842 157.389 215.438 159.758C214.901 158.417 213.638 155.117 212.885 152.649C211.945 149.564 210.87 143.528 187.22 136.821C180.456 134.943 166.257 130.463 163.57 127.565C160.21 123.944 160.21 120.188 159.941 118.98" stroke="#0C1527" stroke-width="2.2" stroke-linecap="round" stroke-linejoin="round"/>
<path d="M63.1379 154.069C64.5122 159.728 66.127 172.383 61.5919 177.733C61.8782 184.192 63.2066 199.306 66.2301 208.086C67.089 206.142 68.0854 197.9 65.1994 180.477" stroke="#0C1527" stroke-width="2.2" stroke-linecap="round" stroke-linejoin="round"/>
<path d="M61.9354 177.39L82.0344 191.795C85.3556 206.257 91.9293 238.747 91.6545 253.014C88.7914 260.331 82.7758 274.076 83.0507 275.448" stroke="#0C1527" stroke-width="2.2" stroke-linecap="round" stroke-linejoin="round"/>
<path d="M111.154 131.308C113.047 137.082 121.692 148.504 141.127 148C160.562 147.496 169.418 137.187 171.416 132.095" stroke="#0C1527" stroke-width="2.2" stroke-linecap="round" stroke-linejoin="round"/>
<path d="M215.588 158.38C214.681 162.963 213.411 173.082 215.588 176.885C215.701 182.77 214.942 196.205 210.996 202.86L212.527 181.638" stroke="#0C1527" stroke-width="2.2" stroke-linecap="round" stroke-linejoin="round"/>
<path d="M215.393 177.917C212.389 181.708 204.431 191.519 196.54 194.371C194.216 211.858 189.295 247.374 188.206 249.548L197.766 281.119" stroke="#0C1527" stroke-width="2.2" stroke-linecap="round" stroke-linejoin="round"/>
<path d="M209.041 310.248H229.457M233.881 310.248H238.644" stroke="#0C1527" stroke-width="2.2" stroke-linecap="round" stroke-linejoin="round"/>
<path d="M121.43 65.1998C124.016 65.1575 129.62 65.4791 131.35 67.104" stroke="#0C1527" stroke-linecap="round" stroke-linejoin="round"/>
<path d="M145.084 67.1038C145.974 66.0882 148.721 64.0571 152.586 64.0571" stroke="#0C1527" stroke-linecap="round" stroke-linejoin="round"/>
<path d="M126.652 78.5783C126.748 76.6408 125.362 76.2727 124.657 76.3309C124.233 76.3416 123.397 76.8224 123.444 78.6596C123.49 80.4968 124.594 81.0091 125.14 81.0356C125.604 81.0238 126.556 80.5159 126.652 78.5783Z" fill="#0C1527" stroke="#0C1527" stroke-linecap="round" stroke-linejoin="round"/>
<path d="M150.882 78.0715C150.759 80.0076 152.141 80.3943 152.847 80.3457C153.271 80.3407 154.113 79.8712 154.091 78.0336C154.069 76.1959 152.973 75.6688 152.427 75.6349C151.963 75.6404 151.004 76.1354 150.882 78.0715Z" fill="#0C1527" stroke="#0C1527" stroke-linecap="round" stroke-linejoin="round"/>
<path d="M135.216 87.4199C132.94 90.326 130.452 96.0114 138.71 95.5042" stroke="#0C1527" stroke-linecap="round" stroke-linejoin="round"/>
<path d="M153.969 101.848C154.407 101.995 155.282 102.734 155.282 104.515M155.282 106.118V107.811" stroke="#0C1527" stroke-linecap="round" stroke-linejoin="round"/>
<path d="M124.499 101.843C123.964 102.733 123.054 104.889 123.696 106.385M124.077 107.571L124.499 108.603" stroke="#0C1527" stroke-linecap="round" stroke-linejoin="round"/>
<path d="M163.443 77.7391L165.993 75.6921M166.769 75.1942L167.544 74.475" stroke="#0C1527" stroke-linecap="round" stroke-linejoin="round"/>
<path d="M122.013 129.431C122.141 132.861 124.266 139.837 131.75 140.294M132.86 140.294H134.231" stroke="#0C1527" stroke-linecap="round" stroke-linejoin="round"/>
<path d="M93.3806 141.51C97.5297 142.567 106.755 145.502 110.462 148.78M112.184 150.102L113.905 151.688" stroke="#0C1527" stroke-linecap="round" stroke-linejoin="round"/>
<path d="M81.728 145.343C85.3033 152.569 92.7715 168.924 94.0427 176.538" stroke="#0C1527" stroke-linecap="round" stroke-linejoin="round"/>
<path d="M98.6772 189.624C99.4276 191.342 100.054 195.916 96.5585 200.463" stroke="#0C1527" stroke-linecap="round" stroke-linejoin="round"/>
<path d="M98.2926 188.5L97.7121 187.341" stroke="#0C1527" stroke-linecap="round" stroke-linejoin="round"/>
<path d="M67.2098 153.054L71.3756 157.559L80.2281 185.802M80.8462 187.405L81.3108 188.951" stroke="#0C1527" stroke-linecap="round" stroke-linejoin="round"/>
<path d="M69.1016 157.546L73.217 173.618" stroke="#0C1527" stroke-linecap="round" stroke-linejoin="round"/>
<path d="M66.5744 155.888C66.5504 158.41 66.8055 164.147 68.0184 166.915M68.4408 167.877L68.8937 169.334" stroke="#0C1527" stroke-linecap="round" stroke-linejoin="round"/>
<path d="M92.1747 251.963C95.7997 243.685 103.173 225.025 103.664 216.612M104.142 214.107C104.139 213.45 104.04 211.536 103.664 209.138" stroke="#0C1527" stroke-linecap="round" stroke-linejoin="round"/>
<path d="M100.428 222.941C100.507 221.653 100.175 218.351 98.2159 215.448" stroke="#0C1527" stroke-linecap="round" stroke-linejoin="round"/>
<path d="M91.3413 204.562C91.0779 202.959 89.7926 199.136 86.7584 196.675" stroke="#0C1527" stroke-linecap="round" stroke-linejoin="round"/>
<path d="M107.926 229.423C108.268 231.642 108.951 236.899 108.951 240.176" stroke="#0C1527" stroke-linecap="round" stroke-linejoin="round"/>
<path d="M89.9515 307.085C89.5593 305.207 89.1854 300.292 90.8269 295.649C92.8787 289.846 92.5367 291.723 92.3658 288.48" stroke="#0C1527" stroke-linecap="round" stroke-linejoin="round"/>
<path d="M92.1796 287.527L91.8721 285.746" stroke="#0C1527" stroke-linecap="round" stroke-linejoin="round"/>
<path d="M86.7061 280.835C86.7471 282.104 86.9398 284.948 87.3826 286.176" stroke="#0C1527" stroke-linecap="round" stroke-linejoin="round"/>
<path d="M116.736 247.776C118.268 251.375 121.539 262.566 122.37 278.539M122.37 282.284V286.778" stroke="#0C1527" stroke-linecap="round" stroke-linejoin="round"/>
<path d="M126.75 252.807C126.926 258.271 126.829 270.599 125.028 276.204" stroke="#0C1527" stroke-linecap="round" stroke-linejoin="round"/>
<path d="M160.248 230.238C160.66 238.041 163.265 256.687 170.397 268.844M171.494 270.35L173.414 273.362" stroke="#0C1527" stroke-linecap="round" stroke-linejoin="round"/>
<path d="M174.923 219.149C174.831 223.712 175.691 235.358 179.86 245.434M181.506 248.309C182.146 249.313 183.371 252.197 183.151 255.702" stroke="#0C1527" stroke-linecap="round" stroke-linejoin="round"/>
<path d="M192.203 219.286L185.62 239.41M185.62 241.244L186.579 244.253M184.711 236.912C183.967 235.086 182.396 230.218 182.058 225.359M181.757 223.554C181.657 223.153 181.516 222.122 181.757 221.207" stroke="#0C1527" stroke-linecap="round" stroke-linejoin="round"/>
<path d="M197.919 186.041C200.007 183.148 204.951 176.622 208.019 173.661M210.193 171.619L213.9 168.173" stroke="#0C1527" stroke-linecap="round" stroke-linejoin="round"/>
<path d="M198.43 185.403C199.964 180.723 203.442 170.318 205.078 166.132M205.845 163.452C206.357 161.878 207.942 158.5 210.192 157.581" stroke="#0C1527" stroke-linecap="round" stroke-linejoin="round"/>
<path d="M210.366 155.321C209.215 156.866 206.76 160.354 206.156 161.949" stroke="#0C1527" stroke-linecap="round" stroke-linejoin="round"/>
<path d="M197.572 179.41C197.572 178.907 197.637 177.642 197.896 176.608M198.328 174.991C198.49 169.35 199.839 157.293 203.942 154.189" stroke="#0C1527" stroke-linecap="round" stroke-linejoin="round"/>
<path d="M207.045 170.668C207.569 169.708 208.984 167.511 210.451 166.395" stroke="#0C1527" stroke-linecap="round" stroke-linejoin="round"/>
<path d="M125.486 151.732C129.508 153.182 139.631 155.513 147.944 153.237M151.624 152.336C152.69 152.136 155.275 151.498 157.088 150.54" stroke="#0C1527" stroke-linecap="round" stroke-linejoin="round"/>
<path d="M66.707 210.675C67.2928 216.23 70.0392 224.977 75.4875 231.82C80.9358 238.662 83.3231 246.22 83.8357 249.145M84.7151 252.031C84.9851 253.17 85.4892 255.859 85.3452 257.513" stroke="#0C1527" stroke-linecap="round" stroke-linejoin="round"/>
<path d="M51.0812 191.905C51.8584 194.05 53.7144 198.504 54.9213 199.161" stroke="#0C1527" stroke-linecap="round" stroke-linejoin="round"/>
<path d="M45.7327 189.03C47.9728 189.258 53.0837 189.03 55.6071 186.292M57.1157 185.197L58.6243 183.554" stroke="#0C1527" stroke-linecap="round" stroke-linejoin="round"/>
<path d="M47.3784 193.411C48.567 199.891 49.1763 203.899 50.7123 209.594M51.2416 211.339L51.8105 213.397" stroke="#0C1527" stroke-linecap="round" stroke-linejoin="round"/>
<path d="M60.4697 177.393C59.4378 177.577 57.0425 177.702 55.7159 176.731" stroke="#0C1527" stroke-linecap="round" stroke-linejoin="round"/>
<path d="M55.3842 179.158C55.0157 178.975 54.1681 178.298 53.7259 177.062" stroke="#0C1527" stroke-linecap="round" stroke-linejoin="round"/>
<path d="M45.9872 182.8C44.8448 181.77 42.2283 178.54 40.9017 173.861M40.2384 171.875L39.4645 169.336" stroke="#0C1527" stroke-linecap="round" stroke-linejoin="round"/>
<path d="M55.8264 155.431C57.7058 155.725 61.7742 156.91 63.0124 159.294" stroke="#0C1527" stroke-linecap="round" stroke-linejoin="round"/>
<path d="M57.0425 146.382C58.0744 146.529 60.4255 146.58 61.5752 145.609" stroke="#0C1527" stroke-linecap="round" stroke-linejoin="round"/>
<path d="M46.9821 150.576C46.5399 151.385 45.7881 154.173 46.3187 158.852M46.3187 159.829L46.6452 161.101" stroke="#0C1527" stroke-linecap="round" stroke-linejoin="round"/>
<path d="M46.7612 150.407C45.1605 152.141 41.9586 156.731 41.9569 161.217M41.6073 162.662V164.107" stroke="#0C1527" stroke-linecap="round" stroke-linejoin="round"/>
<path d="M31.9364 169.194C32.5734 168.443 33.9517 166.766 34.3686 166.073" stroke="#0C1527" stroke-linecap="round" stroke-linejoin="round"/>
<path d="M30.5762 138.063C31.5657 137.57 33.6745 136.545 34.194 136.397" stroke="#0C1527" stroke-linecap="round" stroke-linejoin="round"/>
<path d="M37.1021 142.929C37.8596 142.623 39.7129 142.194 41.0667 142.929" stroke="#0C1527" stroke-linecap="round" stroke-linejoin="round"/>
<path d="M23.4919 147.116C24.2684 147.733 26.3059 149.112 28.2441 149.691" stroke="#0C1527" stroke-linecap="round" stroke-linejoin="round"/>
<path d="M20.1868 142.368C20.9661 142.046 22.7665 141.226 23.7339 140.517" stroke="#0C1527" stroke-linecap="round" stroke-linejoin="round"/>
<path d="M13.8985 133.838C14.4628 133.462 15.7043 132.518 16.1558 131.745" stroke="#0C1527" stroke-linecap="round" stroke-linejoin="round"/>
<path d="M17.1234 150.657C17.5802 149.96 18.7357 148.532 19.7031 148.404" stroke="#0C1527" stroke-linecap="round" stroke-linejoin="round"/>
<path d="M9.14233 143.173C9.43792 142.502 10.2064 141.145 10.9159 141.081" stroke="#0C1527" stroke-linecap="round" stroke-linejoin="round"/>
<path d="M13.9793 158.866C13.9793 158.571 13.9793 157.755 13.9793 156.854" stroke="#0C1527" stroke-linecap="round" stroke-linejoin="round"/>
<path d="M20.1061 162.97C20.1061 162.1 20.1061 160.192 20.1061 159.518M20.1061 158.858V158.089" stroke="#0C1527" stroke-linecap="round" stroke-linejoin="round"/>
<path d="M27.0211 157.643C27.451 157.955 28.2974 158.897 28.2442 160.172" stroke="#0C1527" stroke-linecap="round" stroke-linejoin="round"/>
<path d="M210.107 205.113C207.954 212.135 203.963 224.951 201.551 229.422C198.537 235.01 195.045 238.133 192.465 245.456M191.859 246.805L190.985 249.13" stroke="#0C1527" stroke-linecap="round" stroke-linejoin="round"/>
<path d="M217.411 188.276C218.973 189.75 222.931 192.749 226.27 192.953M228.144 192.953C228.599 192.896 229.61 192.698 230.019 192.358" stroke="#0C1527" stroke-linecap="round" stroke-linejoin="round"/>
<path d="M219.949 182.999C220.924 185.081 224.079 189.235 228.899 189.188M230.01 189.188C230.244 189.188 230.817 189.188 231.238 189.188" stroke="#0C1527" stroke-linecap="round" stroke-linejoin="round"/>
<path d="M228.197 186.969C226.345 185.937 223.096 182.811 224.921 178.561M225.448 177.218C225.643 176.575 226.173 175.151 226.735 174.59M229.542 187.377C229.893 187.377 230.654 187.377 230.888 187.377" stroke="#0C1527" stroke-linecap="round" stroke-linejoin="round"/>
<path d="M217.641 158.327C218.049 157.514 219.419 155.865 221.641 155.776" stroke="#0C1527" stroke-linecap="round" stroke-linejoin="round"/>
<path d="M217.299 148.124C217.847 147.708 219.208 146.906 220.272 147.031" stroke="#0C1527" stroke-linecap="round" stroke-linejoin="round"/>
<path d="M234.041 152.732C234.953 153.903 236.982 157.745 237.795 163.742M237.795 165.304V167.178" stroke="#0C1527" stroke-linecap="round" stroke-linejoin="round"/>
<path d="M247.574 169.131C246.088 167.152 242.849 162.493 241.785 159.682M241.308 158.768C241.205 158.545 240.947 157.831 240.74 156.759M240.379 154.853C240.388 154.132 240.681 152.206 241.785 150.269" stroke="#0C1527" stroke-linecap="round" stroke-linejoin="round"/>
<path d="M246.667 146.16C246.144 146.439 244.763 146.83 243.424 146.16" stroke="#0C1527" stroke-linecap="round" stroke-linejoin="round"/>
<path d="M239.24 143.758C239.937 143.862 241.374 144.259 241.541 145.011" stroke="#0C1527" stroke-linecap="round" stroke-linejoin="round"/>
<path d="M245.222 137.61C246.05 137.633 247.775 137.899 248.051 138.781" stroke="#0C1527" stroke-linecap="round" stroke-linejoin="round"/>
<path d="M251.019 131.892L253.711 132.444" stroke="#0C1527" stroke-linecap="round" stroke-linejoin="round"/>
<path d="M255.16 148.358C254.539 148.978 253.034 150.245 251.985 150.355" stroke="#0C1527" stroke-linecap="round" stroke-linejoin="round"/>
<path d="M254.469 140.021C254.929 140.595 255.946 141.743 256.333 141.743" stroke="#0C1527" stroke-linecap="round" stroke-linejoin="round"/>
<path d="M259.58 132.272C260.324 132.272 261.864 132.351 262.074 132.666" stroke="#0C1527" stroke-linecap="round" stroke-linejoin="round"/>
<path d="M263.11 140.528C263.57 140.582 264.636 140.755 265.22 141.015" stroke="#0C1527" stroke-linecap="round" stroke-linejoin="round"/>
<path d="M258.283 145.873L260.23 146.966" stroke="#0C1527" stroke-linecap="round" stroke-linejoin="round"/>
<path d="M259.053 157.739L259.905 159.197" stroke="#0C1527" stroke-linecap="round" stroke-linejoin="round"/>
<path d="M265.788 154.013C265.923 154.445 266.234 155.366 266.396 155.593" stroke="#0C1527" stroke-linecap="round" stroke-linejoin="round"/>
<path d="M128 108.604C132.162 105.957 142.72 101.754 151 107.446" stroke="#0C1527" stroke-linecap="round" stroke-linejoin="round"/>
<path d="M129 111.288C130.222 114.995 134.4 122.443 141.333 122.578C148.267 122.713 150.667 113.984 151 109.603" stroke="#0C1527" stroke-linecap="round" stroke-linejoin="round"/>
</svg>
