<svg width="156" height="90" viewBox="0 0 156 90" fill="none" xmlns="http://www.w3.org/2000/svg">
<path fill-rule="evenodd" clip-rule="evenodd" d="M81.5135 57.5845C81.5135 57.5845 89.3148 57.7969 92.2057 51.729C92.2057 51.729 92.5703 54.3478 92.4233 56.7068C92.3245 58.2925 91.9945 59.7609 91.1673 60.2376C89.1094 61.4236 81.5135 57.5845 81.5135 57.5845Z" fill="#1B2C54"/>
<path d="M70.8569 44.4508C70.7436 44.255 70.5543 43.8925 70.5543 43.8925C70.4816 43.6445 70.4427 43.3821 70.4427 43.1108C70.4427 41.5734 71.693 40.3253 73.2331 40.3253C73.753 40.3253 74.2399 40.4676 74.6568 40.7152C74.7804 41.1103 74.9586 41.5091 75.1914 41.9116L79.1121 48.6905C79.8012 49.882 80.6984 50.6385 81.8036 50.9602C82.9088 51.2819 84.0273 51.1165 85.1591 50.4642C86.1403 49.8988 86.8028 49.1568 87.1466 48.2381C87.6026 47.9065 88.164 47.7108 88.7708 47.7108C90.1152 47.7108 91.2366 48.6715 91.483 49.9424C91.3487 50.2188 91.1974 50.4907 91.0294 50.7581C90.1792 52.1108 88.9413 53.2557 87.3155 54.1926C85.7104 55.1177 84.1056 55.6044 82.5009 55.6527C80.8963 55.7011 79.4129 55.3303 78.0506 54.5405C76.6884 53.7507 75.5617 52.5855 74.6707 51.0448L70.8569 44.4508Z" fill="#1B2C54"/>
<path d="M69.542 39.8775L69.5418 39.8067C69.5437 38.2444 69.9697 36.7869 70.8199 35.4341C71.67 34.0814 72.8977 32.9425 74.5028 32.0174C76.1285 31.0804 77.7407 30.5827 79.3394 30.5241C80.9381 30.4655 82.4155 30.826 83.7718 31.6055C85.1281 32.385 86.2459 33.5348 87.1251 35.055L90.9389 41.649C91.83 43.1897 92.2805 44.7514 92.2905 46.3342C92.2986 47.6042 92.0297 48.8 91.4839 49.9219C91.2375 48.6509 90.1161 47.6903 88.7718 47.6903C88.1649 47.6903 87.6035 47.886 87.1476 48.2176C87.2005 48.0766 87.2458 47.9314 87.2835 47.7819C87.5674 46.6597 87.3647 45.5029 86.6756 44.3115L82.7549 37.5325C82.0658 36.3411 81.1657 35.5794 80.0545 35.2475C78.9434 34.9155 77.8116 35.0817 76.6592 35.7458C75.5274 36.3981 74.8277 37.2875 74.5601 38.4141C74.3821 39.1631 74.4157 39.9265 74.6607 40.7041L74.6577 40.6947C74.2408 40.4471 73.7539 40.3048 73.234 40.3048C71.6939 40.3048 70.4436 41.5529 70.4436 43.0903C70.4436 43.3615 70.4825 43.6237 70.5551 43.8716L70.5552 43.8719L70.5551 43.8716L70.5428 43.8475L70.5203 43.8022L70.4776 43.7155L70.4363 43.6293L70.413 43.5799L70.4067 43.5664L70.3834 43.5161L70.3604 43.4657L70.3497 43.4422L70.3261 43.3893L70.3146 43.3633L70.3092 43.3512L70.2839 43.2929L70.2788 43.281L70.2504 43.2145L70.222 43.1462L70.218 43.1366L70.1935 43.0764L70.1889 43.0651L70.165 43.005L70.1611 42.9952L70.1346 42.9271L70.1088 42.8593L70.1052 42.8495L70.0826 42.7887L70.0789 42.7785L70.0563 42.716L70.0537 42.7088L70.03 42.6416L70.0276 42.6347L70.0059 42.5717L70.0027 42.5621L69.982 42.5002L69.9791 42.4916L69.9577 42.4256L69.9563 42.4215L69.9349 42.3539L69.9325 42.3462L69.9132 42.2833L69.9105 42.2744L69.8915 42.2107L69.8896 42.2041L69.8698 42.1358L69.8685 42.1313L69.8502 42.0656L69.8479 42.0575L69.8308 41.9942L69.8287 41.9863L69.8113 41.92L69.8103 41.9163L69.7929 41.8473L69.7914 41.8413L69.7756 41.7766L69.7737 41.7687L69.7585 41.7042L69.7571 41.6979L69.7414 41.6285L69.7409 41.6263L69.7262 41.5583L69.7247 41.5513L69.7113 41.4869L69.7098 41.4795L69.6966 41.413L69.6958 41.4089L69.6826 41.3393L69.6817 41.3348L69.6697 41.2686L69.6685 41.2613L69.6573 41.1963L69.6562 41.1899L69.6447 41.1196L69.6339 41.0496L69.633 41.0436L69.6235 40.9782L69.6225 40.971L69.6135 40.9047L69.6129 40.9L69.6039 40.8299L69.6036 40.8268L69.5956 40.7592L69.5948 40.7523L69.5876 40.687L69.5869 40.6804L69.58 40.6118L69.5798 40.6097L69.5734 40.5394L69.5729 40.5343L69.5674 40.468L69.5669 40.461L69.562 40.3948L69.5616 40.3895L69.557 40.319L69.5569 40.3174L69.5531 40.2482L69.5527 40.2419L69.5496 40.1762L69.5493 40.1694L69.5467 40.1015L69.5466 40.0983L69.5445 40.0278L69.5444 40.0235L69.543 39.9564L69.5429 39.9494L69.5421 39.8834L69.542 39.8775ZM70.5447 43.8512L70.5522 43.8661L70.5487 43.8593L70.5447 43.8512ZM70.4776 43.7155L70.5202 43.8022C70.4916 43.7446 70.4636 43.687 70.4363 43.6293L70.4776 43.7155ZM70.3604 43.4657L70.3834 43.5161L70.3766 43.5014L70.3604 43.4657ZM70.3261 43.3893L70.3497 43.4422L70.3441 43.4297L70.3261 43.3893ZM74.6249 40.5855L74.6251 40.586L74.6249 40.5855ZM74.6142 40.5477L74.6154 40.5518L74.6142 40.5477ZM74.5949 40.4766L74.5952 40.4775L74.5949 40.4766ZM74.5851 40.4386L74.5864 40.4437L74.5851 40.4386ZM74.5766 40.4047L74.5769 40.4056L74.5766 40.4047ZM74.5677 40.3679L74.568 40.3691L74.5677 40.3679ZM74.5588 40.3297L74.5602 40.3356L74.5588 40.3297ZM74.5512 40.2959L74.5518 40.2986L74.5512 40.2959ZM74.5434 40.2596L74.5436 40.2608L74.5434 40.2596ZM74.5354 40.2211L74.5367 40.2276L74.5354 40.2211ZM74.5286 40.1873L74.5294 40.1916L74.5286 40.1873ZM74.5218 40.1517L74.522 40.1527L74.5218 40.1517ZM74.5147 40.1126L74.5159 40.1197L74.5147 40.1126ZM74.5088 40.0789L74.5097 40.0844L74.5088 40.0789ZM74.503 40.0442L74.5031 40.0447L74.503 40.0442ZM74.4967 40.0044L74.4979 40.0119L74.4967 40.0044ZM74.4917 39.9707L74.4927 39.9772L74.4917 39.9707ZM74.4816 39.8964L74.4826 39.9043L74.4816 39.8964ZM74.4775 39.8627L74.4784 39.8701L74.4775 39.8627ZM72.5335 33.4804C72.7821 33.3949 73.0488 33.3485 73.3264 33.3485C73.0489 33.3485 72.7821 33.3949 72.5335 33.4804L72.4806 33.4993L72.4281 33.5194C72.4281 33.5194 71.2681 34.721 70.8199 35.4341C70.0057 36.7295 69.5806 38.121 69.5444 39.6086C69.5427 39.6744 69.5419 39.7404 69.5418 39.8067C69.5419 39.7404 69.5427 39.6744 69.5444 39.6086C69.5806 38.121 70.0057 36.7295 70.8199 35.4341C71.2681 34.721 72.4281 33.5194 72.4281 33.5194L72.4806 33.4993L72.5335 33.4804ZM74.4693 39.7887L74.4701 39.7968L74.4693 39.7887ZM74.466 39.7549L74.4668 39.763L74.466 39.7549ZM74.4598 39.6812L74.4604 39.6895L74.4598 39.6812ZM74.4573 39.6474L74.4579 39.656L74.4573 39.6474ZM74.4553 39.615V39.6151V39.615ZM74.453 39.5739L74.4534 39.5823L74.453 39.5739ZM74.4514 39.54L74.4518 39.549L74.4514 39.54ZM74.4502 39.5077L74.4503 39.5101L74.4502 39.5077ZM74.449 39.4669L74.4492 39.4752L74.449 39.4669ZM74.4484 39.4329L74.4485 39.4422L74.4484 39.4329ZM74.4479 39.4006L74.448 39.4047L74.4479 39.4006ZM74.4478 39.3601L74.4478 39.3683L74.4478 39.3601ZM74.448 39.326L74.4479 39.3356L74.448 39.326ZM74.4485 39.2937L74.4484 39.2991L74.4485 39.2937ZM74.4494 39.2536L74.4492 39.2616L74.4494 39.2536ZM74.4505 39.2193L74.4501 39.229L74.4503 39.2238L74.4505 39.2193ZM74.4518 39.187L74.4515 39.1934L74.4518 39.187ZM74.4537 39.1474L74.4533 39.155L74.4537 39.1474ZM74.4557 39.1128L74.4551 39.1226L74.4554 39.1176L74.4557 39.1128ZM74.4579 39.0805L74.4574 39.0876L74.4579 39.0805ZM74.4608 39.0415L74.4602 39.0486L74.4608 39.0415ZM74.4637 39.0065L74.4629 39.0164L74.4633 39.0115L74.4637 39.0065ZM74.4667 38.9742L74.466 38.982L74.4667 38.9742ZM74.4706 38.9358L74.4699 38.9424L74.4706 38.9358ZM74.4745 38.9004L74.4734 38.9103L74.4739 38.9057L74.4745 38.9004ZM74.4784 38.8681L74.4774 38.8763L74.4784 38.8681ZM74.4832 38.8305L74.4824 38.8364L74.4832 38.8305ZM74.4881 38.7945L74.4867 38.8044L74.4873 38.8L74.4881 38.7945ZM74.4928 38.7622L74.4915 38.7708L74.4928 38.7622ZM74.4984 38.7256L74.4976 38.7306L74.4984 38.7256ZM74.5044 38.6889L74.5028 38.6987L74.5035 38.6945L74.5044 38.6889ZM74.51 38.6564L74.5084 38.6654L74.51 38.6564ZM74.5164 38.6211L74.5157 38.6249L74.5164 38.6211ZM74.5235 38.5834L74.5217 38.5932L74.5224 38.5892L74.5235 38.5834ZM74.53 38.5509L74.5281 38.5602L74.53 38.5509ZM74.5369 38.5173L74.5365 38.5194L74.5369 38.5173ZM74.5454 38.4782L74.5433 38.4878L74.5454 38.4782ZM74.5527 38.4456L74.5506 38.455L74.5527 38.4456Z" fill="#2AC4D4"/>
<path d="M1 0.896729C2.43504 18.055 16.035 51.2277 58.9543 46.6521" stroke="#859EAD" stroke-dasharray="2 2"/>
<path d="M103.228 46.1322C119.028 44.7456 151.564 51.5395 155.315 89.8076" stroke="#859EAD" stroke-dasharray="2 2"/>
</svg>
