<svg width="352" height="326" viewBox="0 0 352 326" fill="none" xmlns="http://www.w3.org/2000/svg">
<path d="M201.264 125.797C202.614 113.051 188.665 91.0971 162.035 99.473C136.311 107.564 109.332 157.153 147.66 163.005C183.786 168.521 177.578 188.02 191.2 191.482C202.267 194.296 214.879 181.93 201.06 161.109C196.311 153.953 200.253 135.344 201.264 125.797Z" fill="#20DFB2"/>
<path d="M218.394 79.5585C246.543 82.5119 221.149 102.366 242.626 109.774C251.83 112.949 277.358 86.4065 251.144 60.8455C225.002 35.3529 246.299 13.9397 234.104 6.96213C224.196 1.29287 205.45 11.1599 216.456 33.5899C228.101 57.3227 182.321 75.7737 218.394 79.5585Z" fill="#2AC4D4"/>
<path d="M317.96 106.199C313.263 117.585 297.272 120.432 289.863 120.432C258.411 120.432 253.799 161.875 268.895 179.457C283.992 197.039 252.96 226.342 257.153 230.109C261.347 233.877 271.412 211.272 305.799 220.063C333.309 227.095 327.605 217.132 321.315 211.272C313.347 205.551 303.87 183.643 329.702 141.781C361.993 89.4542 323.831 91.9659 317.96 106.199Z" fill="#D2F9F0"/>
<path d="M89.8298 185.317C73.7265 170.247 47.8941 162.293 36.9908 160.2C-32.2031 160.2 13.0875 232.621 33.636 236.388C54.1845 240.156 58.378 232.621 104.088 303.786C149.798 374.951 162.798 246.017 161.54 240.993C160.282 235.97 144.766 222.155 159.443 204.574C174.121 186.992 159.443 177.363 139.371 171.084C119.299 164.805 109.959 204.155 89.8298 185.317Z" fill="#3C9FF6"/>
<path d="M232.114 110.99C231.887 107.021 233.25 100.546 233.96 97.8051L235.096 98.6022L236.716 104.644L238.705 121.476L237.494 143.141L234.468 154.448C233.352 156.692 230.637 161.803 228.705 164.298C226.291 167.417 223.308 167.275 220.326 167.559C217.343 167.842 218.621 166.566 219.047 164.298C219.474 162.03 229.557 156.642 233.96 145.725C238.363 134.809 236.659 127.011 235.096 123.467C233.534 119.922 232.398 115.952 232.114 110.99Z" fill="#0C1527" stroke="#0C1527"/>
<path d="M206.124 119.094C203.874 119.843 201.229 112.545 200.187 108.802C205.186 112.794 213.83 111.193 217.527 109.894C222.058 111.921 211.747 115.352 208.154 115.976C204.561 116.599 208.935 118.159 206.124 119.094Z" fill="#E0E7EB" stroke="#0C1527"/>
<path d="M204.186 122.883C195.031 119.27 193.984 108.448 194.605 103.489L192.875 100.833L185.157 104.286V106.279C185.867 109.423 187.579 116.135 188.75 117.835C190.214 119.961 199.928 125.274 204.186 126.735C208.444 128.196 215.629 127.399 204.186 122.883Z" fill="#E0E7EB" stroke="#0C1527"/>
<path d="M187.409 158.484C189.118 164.928 189.509 170.445 189.491 172.398L188.574 176.059L195.91 207.365L220.119 192.719C220.791 190.949 222.246 186.531 222.686 183.016C223.236 178.622 216.634 181.734 205.997 181.002C195.36 180.27 189.491 149.33 187.409 145.486C185.328 141.641 185.273 150.429 187.409 158.484Z" fill="#0C1527" stroke="#0C1527"/>
<path d="M162.636 123.309C165.603 124.79 176.393 139.966 181.418 147.369C178.919 144.15 168.843 134.896 163.765 132.241C158.686 129.586 158.928 121.459 162.636 123.309Z" fill="#0C1527"/>
<path d="M179.886 154.289C178.984 153.323 166.989 148.039 161.105 145.518C152.399 155.979 162.072 160.243 170.858 160.565C179.645 160.887 178.194 157.185 174.566 156.381C170.939 155.576 170.294 152.679 172.954 152.921C175.614 153.162 181.015 155.496 179.886 154.289Z" fill="#0C1527"/>
<path d="M238.916 125.141C239.023 121.953 237.098 108.405 236.122 102.029L235.456 99.6378V95.9185H240.247L249.173 102.029L257.146 103.357L268.058 111.194L272.848 122.086L276.308 138.823V140.683L272.05 149.981C271.296 151.531 269.175 155.64 266.727 159.678C263.667 164.725 262.868 162.202 261.271 159.678C259.675 157.154 263.8 151.973 263.8 149.051C263.8 146.129 265.13 128.728 265.13 126.204C265.13 123.68 266.195 113.718 265.13 111.194C264.066 108.67 261.937 110.131 261.271 111.194C260.606 112.257 260.074 115.445 257.146 133.643C254.219 151.841 250.626 149.715 247.698 151.973C244.771 154.232 253.021 128.994 254.485 121.289C255.949 113.585 250.626 117.437 247.698 127.798C244.771 138.159 244.372 132.979 243.973 131.252C243.573 129.525 241.577 119.563 241.71 125.141C241.844 130.72 238.783 129.126 238.916 125.141Z" fill="#0C1527"/>
<path d="M162.636 123.309C165.603 124.79 176.393 139.966 181.418 147.369C178.919 144.15 168.843 134.896 163.765 132.241C158.686 129.586 158.928 121.459 162.636 123.309Z" stroke="#0C1527"/>
<path d="M179.886 154.289C178.984 153.323 166.989 148.039 161.105 145.518C152.399 155.979 162.072 160.243 170.858 160.565C179.645 160.887 178.194 157.185 174.566 156.381C170.939 155.576 170.294 152.679 172.954 152.921C175.614 153.162 181.015 155.496 179.886 154.289Z" stroke="#0C1527"/>
<path d="M238.916 125.141C239.023 121.953 237.098 108.405 236.122 102.029L235.456 99.6378V95.9185H240.247L249.173 102.029L257.146 103.357L268.058 111.194L272.848 122.086L276.308 138.823V140.683L272.05 149.981C271.296 151.531 269.175 155.64 266.727 159.678C263.667 164.725 262.868 162.202 261.271 159.678C259.675 157.154 263.8 151.973 263.8 149.051C263.8 146.129 265.13 128.728 265.13 126.204C265.13 123.68 266.195 113.718 265.13 111.194C264.066 108.67 261.937 110.131 261.271 111.194C260.606 112.257 260.074 115.445 257.146 133.643C254.219 151.841 250.626 149.715 247.698 151.973C244.771 154.232 253.021 128.994 254.485 121.289C255.949 113.585 250.626 117.437 247.698 127.798C244.771 138.159 244.372 132.979 243.973 131.252C243.573 129.525 241.577 119.563 241.71 125.141C241.844 130.72 238.783 129.126 238.916 125.141Z" stroke="#0C1527"/>
<path d="M277.282 204.135C275.115 206.807 272.129 195.066 270.907 188.861L264.231 193.202L277.282 224.505L284.741 233.727H291.521C293.442 232.852 297.589 230.698 298.809 229.073C300.335 227.043 305.166 216.045 304.827 209.023C304.488 202.001 290.334 214.268 289.826 216.552C289.317 218.837 283.3 219.513 281.944 219.26C280.588 219.006 279.74 222.136 277.282 216.552C274.824 210.969 283.469 200.563 284.063 199.378C284.656 198.194 279.992 200.793 277.282 204.135Z" fill="#0C1527" stroke="#0C1527"/>
<path d="M251.603 205.63L208.381 240.686L209.281 241.734L227.591 236.341C230.792 235.093 237.406 232.566 238.246 232.446C239.087 232.326 241.998 233.195 243.349 233.644L245.75 225.704L251.603 205.63Z" fill="#0C1527" stroke="#0C1527"/>
<path d="M117.451 248.401C112.199 250.209 83.5702 266.781 69.9124 274.84L107.717 279.586L210.263 291.11L207.32 274.84C204.83 273.71 199.08 270.682 196.002 267.609C192.153 263.768 183.551 263.542 177.892 269.869C172.233 276.196 162.725 274.84 155.707 276.648C148.69 278.456 135.56 274.84 132.844 272.807C130.127 270.773 130.127 266.931 119.488 267.609C108.848 268.287 112.018 265.123 114.96 261.056C117.903 256.988 124.015 246.142 117.451 248.401Z" fill="#0C1527" stroke="#0C1527"/>
<path d="M234.067 271.808L210.344 269.196H205.809L207.902 283.3L234.067 271.808Z" fill="#0C1527" stroke="#0C1527"/>
<path d="M208.679 228.29C206.505 227.024 203.547 220.531 202.34 217.443C200.076 214.958 203.698 226.708 204.604 231.679C205.328 235.657 207.622 236.048 208.679 235.747C225.204 225.578 221.129 223.544 216.828 226.708C212.527 229.872 211.395 229.872 208.679 228.29Z" fill="#0C1527" stroke="#0C1527"/>
<path d="M212.343 38.7722C207.693 39.1161 202.933 35.0469 201.135 32.9693H199.856L205.454 24.1573L219.233 25.8768L233.228 47.3692C234.592 51.6677 236.759 60.1787 234.52 59.8349C231.721 59.405 227.845 53.3871 225.262 47.3692C222.678 41.3514 218.157 38.3424 212.343 38.7722Z" fill="#E0E7EB" stroke="#0C1527"/>
<path d="M176.772 65.6909C179.517 63.9782 181.576 62.2656 180.547 50.6198C179.035 33.5159 201.816 34.6373 212.115 30.0683C218.291 27.3281 227.213 44.4543 228.928 50.6198C230.644 56.7852 233.732 57.1277 237.85 68.7736C241.967 80.4194 235.448 92.4078 233.732 94.8055C232.016 97.2031 234.075 102.341 235.448 99.9434C236.82 97.5457 239.222 98.2307 240.595 105.081C241.693 110.562 248.372 110.79 251.575 110.219C249.173 109.877 245.81 106.999 251.575 98.2307C257.339 89.4621 249.173 83.388 244.369 81.447C244.255 80.762 245.676 81.0917 250.545 84.8722C256.722 89.6676 253.634 99.9434 254.32 99.9434C257.751 92.4078 255.212 81.31 250.545 76.6517C244.712 70.8287 248.912 67.7613 251.575 57.1277C252.604 53.0175 252.947 42.3993 248.144 33.8361C240.04 19.3917 229.614 9.17427 209.37 10.2018C193.174 11.0239 180.776 22.076 180.547 28.6982C172.311 37.6671 172.311 44.6789 172.312 59.4919L172.312 59.868C172.312 66.8541 174.027 67.4035 176.772 65.6909Z" fill="#0C1527"/>
<ellipse rx="1.71548" ry="3.08304" transform="matrix(0.970472 -0.241215 0.24202 0.970271 215.889 66.3763)" fill="#0C1527"/>
<ellipse rx="1.71548" ry="3.08304" transform="matrix(0.970472 -0.241215 0.24202 0.970271 191.184 68.4315)" fill="#0C1527"/>
<path d="M201.478 74.597C201.478 79.7349 200.105 82.4751 200.105 83.5027C200.105 84.5303 202.85 85.5578 204.909 84.5303" stroke="#0C1527" stroke-linecap="round" stroke-linejoin="round"/>
<path d="M201.478 73.5689V71.8563" stroke="#0C1527" stroke-linecap="round" stroke-linejoin="round"/>
<path d="M196.331 90.3528C200.426 95.8034 211.341 96.6443 216.992 92.0654M219.321 89.3252C219.048 89.8141 218.734 90.2707 218.382 90.6953" stroke="#0C1527" stroke-linecap="round" stroke-linejoin="round"/>
<path d="M187.066 79.7343H188.439" stroke="#0C1527" stroke-linecap="round" stroke-linejoin="round"/>
<path d="M189.468 79.7346C192.899 79.6204 199.693 77.7479 199.419 71.1715V68.4313" stroke="#0C1527" stroke-linecap="round" stroke-linejoin="round"/>
<path d="M229.271 64.6627C229.386 66.0328 229.546 69.3896 229.271 71.8557C228.928 74.9385 222.752 76.9936 215.203 76.9936C209.164 76.9936 207.197 73.5684 206.968 71.8557L206.282 68.088" stroke="#0C1527" stroke-linecap="round" stroke-linejoin="round"/>
<path d="M179.865 65.5221C181.807 65.4285 185.965 65.2282 187.062 65.1754" stroke="#0C1527" stroke-linecap="round" stroke-linejoin="round"/>
<path d="M230.987 64.3211L232.016 63.2935M232.703 62.6085L234.761 60.5533" stroke="#0C1527" stroke-linecap="round" stroke-linejoin="round"/>
<path d="M219.321 62.6089C222.066 62.2657 227.693 61.7854 228.242 62.6089" stroke="#0C1527" stroke-linecap="round" stroke-linejoin="round"/>
<path d="M193.929 65.0061C194.958 65.0061 197.154 65.0061 197.703 65.0061" stroke="#0C1527" stroke-linecap="round" stroke-linejoin="round"/>
<path d="M206.282 65.6911C206.167 65.2344 206.556 64.2525 209.027 63.9785" stroke="#0C1527" stroke-linecap="round" stroke-linejoin="round"/>
<path d="M187.066 59.1832C189.354 59.069 194.203 59.0462 195.301 59.8682" stroke="#0C1527" stroke-linecap="round" stroke-linejoin="round"/>
<path d="M206.282 59.5251C207.654 58.7259 211.085 57.0589 213.83 56.7849" stroke="#0C1527" stroke-linecap="round" stroke-linejoin="round"/>
<path d="M195.301 104.053C195.416 108.849 197.566 119.193 205.252 122.207" stroke="#0C1527" stroke-linecap="round" stroke-linejoin="round"/>
<path d="M206.625 122.893L207.997 123.578" stroke="#0C1527" stroke-linecap="round" stroke-linejoin="round"/>
<path d="M232.016 102.683L231.33 105.081" stroke="#0C1527" stroke-linecap="round" stroke-linejoin="round"/>
<path d="M230.301 107.479C228.7 112.389 225.497 122.824 225.497 125.29C225.497 127.756 225.497 130.657 225.497 131.798" stroke="#0C1527" stroke-linecap="round" stroke-linejoin="round"/>
<path d="M155.841 121.179C156.299 120.723 157.557 119.878 158.93 120.152M160.645 120.494C165.449 123.805 176.704 134.538 183.292 150.979M184.321 153.719C185.122 155.546 186.86 160.227 187.409 164.337" stroke="#0C1527" stroke-linecap="round" stroke-linejoin="round"/>
<path d="M169.567 141.732C173.341 143.673 181.302 148.103 182.949 150.295M160.645 144.472C164.877 145.043 174.233 146.87 177.802 149.61M180.89 151.322L182.949 153.378" stroke="#0C1527" stroke-linecap="round" stroke-linejoin="round"/>
<path d="M155.498 168.448C160.188 164.794 172.449 158.583 183.978 162.968" stroke="#0C1527" stroke-linecap="round" stroke-linejoin="round"/>
<path d="M191.87 146.527C193.357 150.066 197.086 157.556 200.105 159.2M191.184 144.814L190.154 142.416" stroke="#0C1527" stroke-linecap="round" stroke-linejoin="round"/>
<path d="M194.272 123.235C194.73 124.149 196.537 126.181 200.105 127.003" stroke="#0C1527" stroke-linecap="round" stroke-linejoin="round"/>
<path d="M213.487 174.614C214.86 177.354 218.84 181.191 223.781 174.614M225.84 172.902L227.213 171.532M262.898 110.905C261.411 118.897 258.438 137.074 258.438 145.842M258.438 150.98C258.438 153.149 258.438 158.173 258.438 160.913M264.614 119.125C263.584 127.232 261.663 144.952 262.212 150.98M216.919 170.161C220.693 170.39 229.546 168.86 234.761 160.913M236.477 159.201C237.964 156.46 241.212 149.952 242.31 145.842M214.86 169.819C214.288 169.476 212.87 168.586 211.772 167.764" stroke="#0C1527" stroke-linecap="round" stroke-linejoin="round"/>
<path d="M164.42 111.932C167.393 114.33 173.821 120.495 175.743 125.976" stroke="#0C1527" stroke-linecap="round" stroke-linejoin="round"/>
<path d="M166.822 109.534C169.567 109.877 176.017 110.357 179.861 109.534" stroke="#0C1527" stroke-linecap="round" stroke-linejoin="round"/>
<path d="M294.691 134.666C291.477 136.591 287.8 138.093 285.607 138.904" stroke="#0C1527" stroke-linecap="round" stroke-linejoin="round"/>
<path d="M282.969 140.423C281.717 141.504 279.295 143.341 279.62 142.044C279.944 140.747 280.425 140.302 280.624 140.241" stroke="#0C1527" stroke-linecap="round" stroke-linejoin="round"/>
<path d="M308.094 142.996C305.688 143.785 302.602 144.25 298.145 143.587M295.3 142.996H292.336" stroke="#0C1527" stroke-linecap="round" stroke-linejoin="round"/>
<path d="M312.964 152.345C310.988 153.094 305.945 154.427 301.583 153.765M299.449 153.765L297.782 153.474" stroke="#0C1527" stroke-linecap="round" stroke-linejoin="round"/>
<path d="M310.357 162.094C308.36 162.489 303.384 163.376 299.455 163.764" stroke="#0C1527" stroke-linecap="round" stroke-linejoin="round"/>
<path d="M274.938 165.967C278.223 163 286.027 156.537 290.97 154.413M292.378 153.945C292.847 153.581 293.957 152.961 294.645 153.398" stroke="#0C1527" stroke-linecap="round" stroke-linejoin="round"/>
<path d="M341.016 142.949H343.135M320.506 158.177C323.02 156.767 329.218 154.438 333.897 156.401M335.466 157.217L337.151 158.177" stroke="#0C1527" stroke-linecap="round" stroke-linejoin="round"/>
<path d="M318.795 164.049C322.059 162.682 329.429 163.208 332.255 163.208M333.939 164.049C334.431 164.294 335.477 164.91 335.729 165.415" stroke="#0C1527" stroke-linecap="round" stroke-linejoin="round"/>
<path d="M326.411 169.462C326.236 170.916 326.117 173.981 327.043 174.612M328.043 175.295L328.57 175.925" stroke="#0C1527" stroke-linecap="round" stroke-linejoin="round"/>
<path d="M329.991 170.88C330.114 171.44 330.76 172.677 332.36 173.139" stroke="#0C1527" stroke-linecap="round" stroke-linejoin="round"/>
<path d="M317.993 168.389C319.917 168.389 324.085 167.588 329.376 169.409" stroke="#0C1527" stroke-linecap="round" stroke-linejoin="round"/>
<path d="M311.031 168.458C312.858 168.74 317.617 169.005 318.055 167.215C318.603 164.977 317.458 164.48 315.515 164.579C313.96 164.659 312.542 164.977 312.027 165.126" stroke="#0C1527" stroke-linecap="round" stroke-linejoin="round"/>
<path d="M317.314 155.555C317.755 156.435 318.159 158.279 316.248 158.62" stroke="#0C1527" stroke-linecap="round" stroke-linejoin="round"/>
<path d="M335.824 136.269C336.848 137.56 338.46 140.577 336.72 142.314" stroke="#0C1527" stroke-linecap="round" stroke-linejoin="round"/>
<path d="M320.54 182.411C318.433 182.633 313.563 182.944 310.936 182.411" stroke="#0C1527" stroke-linecap="round" stroke-linejoin="round"/>
<path d="M308.885 182.057L306.8 181.417" stroke="#0C1527" stroke-linecap="round" stroke-linejoin="round"/>
<path d="M303.271 190.464L306.88 183.899M305.998 188.382L306.88 186.861" stroke="#0C1527" stroke-linecap="round" stroke-linejoin="round"/>
<path d="M289.022 197.334C286.41 198.564 280.772 203.474 279.117 213.273M278.733 215.382V217.214" stroke="#0C1527" stroke-linecap="round" stroke-linejoin="round"/>
<path d="M314.497 128.934C315.558 127.169 317.863 123.668 318.59 123.789C319.318 123.91 320.915 124.546 321.622 124.849" stroke="#0C1527" stroke-linecap="round" stroke-linejoin="round"/>
<path d="M322.782 125.267L323.801 125.878" stroke="#0C1527" stroke-linecap="round" stroke-linejoin="round"/>
<path d="M321.286 138.771C322.283 139.088 323.924 140.169 322.51 141.961C320.742 144.2 318.635 144.268 317.208 142.571" stroke="#0C1527" stroke-linecap="round" stroke-linejoin="round"/>
<path d="M339.232 130.289L341.679 131.51" stroke="#0C1527" stroke-linecap="round" stroke-linejoin="round"/>
<path d="M221.365 129.799C221.219 132.581 221.343 138.583 223.015 140.339" stroke="#0C1527" stroke-linecap="round" stroke-linejoin="round"/>
<path d="M346.254 134.883C342.265 134.549 333.865 134.424 330.942 137.561C327.288 141.482 331.216 143.397 333.226 143.214C335.235 143.032 339.529 142.029 337.61 144.217C335.692 146.406 330.211 145.768 328.11 146.406C326.009 147.044 318.518 151.604 316.965 153.063C315.412 154.522 314.525 155.463 314.342 157.196" stroke="#0C1527" stroke-width="2.2" stroke-linecap="round" stroke-linejoin="round"/>
<path d="M176.772 65.6906C176.887 69.4583 177.939 77.3364 181.233 78.7065C184.527 80.0766 184.207 79.9624 183.635 79.7341C186.494 90.4665 195.507 111.726 208.684 110.904C221.86 110.082 231.788 99.8289 235.105 94.8052" stroke="#0C1527" stroke-width="2.2" stroke-linecap="round" stroke-linejoin="round"/>
<path d="M192.899 100.286L185.007 104.054C184.55 103.483 182.811 102.684 179.517 104.054C175.4 105.766 153.783 109.192 150.694 118.097C147.606 127.003 150.694 164.338 150.694 169.476C150.694 174.614 152.41 174.614 158.586 170.846C164.763 167.078 184.664 163.996 187.066 169.476C188.988 173.86 193.586 197.106 195.645 208.181L201.821 243.119C209.37 241.406 225.909 237.296 231.673 234.556C237.438 231.816 241.853 232.729 243.34 233.528C245.513 224.166 251.026 204.277 255.692 199.618C260.359 194.96 263.356 193.11 264.271 192.768C268.846 206.012 279.437 232.706 285.202 233.528C292.407 234.556 301.672 232.158 310.936 205.784C320.201 179.409 321.23 181.807 324.662 180.094C328.093 178.382 335.642 177.697 337.014 172.216C338.387 166.736 337.358 166.736 338.73 165.023C340.103 163.311 340.789 160.228 339.759 158.858C338.73 157.488 338.73 157.83 339.759 156.118C340.789 154.405 341.475 151.665 339.759 149.61C338.044 147.554 340.789 145.842 343.534 144.814C346.279 143.787 353.142 139.676 348.338 136.251C343.534 132.826 344.906 134.196 345.25 131.798C345.593 129.401 346.965 128.716 339.759 125.975C333.995 123.783 322.489 120.723 317.456 119.467C316.312 119.011 313.544 118.782 311.623 121.523C309.701 124.263 305.561 129.058 303.731 131.113C302.473 131.342 299.545 131.798 297.897 131.798C295.839 131.798 292.407 130.086 289.319 131.798C286.231 133.511 279.712 136.936 277.996 138.991C276.28 141.046 275.594 139.334 274.908 134.881C274.221 130.428 272.849 116.042 267.359 110.562C261.869 105.081 253.977 101.999 249.173 101.999" stroke="#0C1527" stroke-width="2.2" stroke-linecap="round" stroke-linejoin="round"/>
<path d="M201.821 242.776L204.223 258.19C217.033 259.217 245.398 261.409 256.379 261.957C267.359 262.506 267.13 264.241 265.643 265.04L210.056 291.072C169.338 286.505 84.9506 277.097 73.1469 276.001C61.3432 274.905 59.9935 272.804 60.7942 271.891L23.0498 167.421C22.4779 167.421 22.8439 167.421 28.883 167.421C34.9221 167.421 150.008 173.586 188.782 175.641" stroke="#0C1527" stroke-width="2.2" stroke-linecap="round" stroke-linejoin="round"/>
<path d="M185.008 104.396C188.896 122.436 199.831 160.09 212.458 166.393C228.242 174.271 235.791 152.692 237.163 146.184C238.536 139.676 240.252 113.987 235.105 98.573" stroke="#0C1527" stroke-width="2.2" stroke-linecap="round" stroke-linejoin="round"/>
<path d="M195.645 207.153C208.798 199.389 238.948 182.012 244.712 177.354C251.918 171.531 259.467 166.05 261.526 164.68C263.584 163.31 268.045 160.57 271.82 150.294C274.839 142.074 278.11 138.648 279.368 137.963" stroke="#0C1527" stroke-width="2.2" stroke-linecap="round" stroke-linejoin="round"/>
<path d="M255.006 232.843L278.682 228.391M251.575 233.528L246.771 234.214" stroke="#0C1527" stroke-width="2.2" stroke-linecap="round" stroke-linejoin="round"/>
<path d="M306.133 222.225L330.495 217.429M333.583 216.744L338.044 215.717" stroke="#0C1527" stroke-width="2.2" stroke-linecap="round" stroke-linejoin="round"/>
<path d="M263.585 193.11C267.473 190.256 277.172 183.93 284.859 181.464C294.466 178.381 310.937 168.791 311.28 166.736C311.623 164.68 311.28 164.107 310.552 161.623C310.527 161.536 316.35 160.986 313.641 154.773C311.39 149.612 321.719 148.978 313.338 143.786C309.732 141.552 310.937 138.991 313.338 140.019C315.74 141.046 322.26 137.964 317.799 134.196C313.338 130.428 306.69 131.309 302.916 131.309" stroke="#0C1527" stroke-width="2.2" stroke-linecap="round" stroke-linejoin="round"/>
<path d="M287.375 180.876L291.233 194.218C293.714 192.475 299.198 186.048 301.292 174.274" stroke="#0C1527" stroke-width="2.2" stroke-linecap="round" stroke-linejoin="round"/>
<path d="M207.265 241.706L252.586 204.4" stroke="#0C1527" stroke-width="2.2" stroke-linecap="round" stroke-linejoin="round"/>
<path d="M204.025 256.992L209.827 291.045" stroke="#0C1527" stroke-width="2.2" stroke-linecap="round" stroke-linejoin="round"/>
</svg>
