<svg width="126" height="30" viewBox="0 0 126 30" fill="none" xmlns="http://www.w3.org/2000/svg">
<path fill-rule="evenodd" clip-rule="evenodd" d="M11.9718 27.1144C11.9718 27.1144 19.773 27.3271 22.6639 21.2485C22.6639 21.2485 23.0285 23.8719 22.8815 26.2351C22.7827 27.8236 22.4527 29.2946 21.6255 29.7722C19.5676 30.9603 11.9718 27.1144 11.9718 27.1144Z" fill="#1B2C54"/>
<path d="M1.31508 13.9575C1.2018 13.7613 1.01248 13.3982 1.01248 13.3982C0.939837 13.1497 0.900894 12.8869 0.900894 12.6151C0.900894 11.0751 2.15123 9.82473 3.69128 9.82473C4.21117 9.82473 4.69807 9.96723 5.11499 10.2153C5.23862 10.6111 5.41681 11.0106 5.64962 11.4138L9.57033 18.2047C10.2594 19.3983 11.1566 20.1562 12.2618 20.4784C13.367 20.8006 14.4855 20.635 15.6173 19.9816C16.5985 19.4151 17.261 18.6718 17.6048 17.7516C18.0608 17.4193 18.6222 17.2233 19.229 17.2233C20.5734 17.2233 21.6948 18.1857 21.9412 19.4588C21.8069 19.7357 21.6556 20.0081 21.4876 20.2759C20.6374 21.6311 19.3995 22.778 17.7737 23.7166C16.1686 24.6433 14.5638 25.1309 12.9591 25.1793C11.3545 25.2277 9.8711 24.8563 8.50885 24.0651C7.14663 23.2739 6.01995 22.1066 5.12888 20.5632L1.31508 13.9575Z" fill="#1B2C54"/>
<path d="M0.000227736 9.37614L0 9.30518C0.00188696 7.74015 0.427884 6.28003 1.27806 4.9249C2.12823 3.56974 3.35589 2.42881 4.96101 1.50209C6.58672 0.56349 8.1989 0.0648452 9.79757 0.00615428C11.3963 -0.0525366 12.8737 0.308556 14.23 1.08946C15.5863 1.87037 16.7041 3.02223 17.5833 4.54504L21.3971 11.1507C22.2882 12.6941 22.7387 14.2586 22.7487 15.8442C22.7567 17.1164 22.4879 18.3144 21.9421 19.4382C21.6957 18.1651 20.5743 17.2027 19.23 17.2027C18.6231 17.2027 18.0617 17.3988 17.6057 17.731C17.6586 17.5897 17.704 17.4442 17.7417 17.2945C18.0256 16.1703 17.8229 15.0115 17.1338 13.8179L13.2131 7.02701C12.524 5.83344 11.6239 5.07039 10.5127 4.7379C9.40157 4.40537 8.26979 4.57178 7.11741 5.2371C5.98559 5.89057 5.28589 6.78157 5.01827 7.9101C4.84034 8.66046 4.87388 9.42517 5.11893 10.2042L5.1159 10.1948C4.69898 9.94668 4.21208 9.80419 3.69219 9.80419C2.15214 9.80419 0.901803 11.0545 0.901803 12.5946C0.901803 12.8663 0.940714 13.1289 1.01326 13.3773L1.01336 13.3776L1.01326 13.3773L1.00103 13.3531L0.978453 13.3078L0.935801 13.2209L0.894451 13.1345L0.871157 13.0851L0.864845 13.0715L0.841551 13.0211L0.818549 12.9706L0.807911 12.9471L0.784291 12.8941L0.772742 12.8681L0.767439 12.8559L0.742063 12.7976L0.736955 12.7857L0.708618 12.719L0.680183 12.6506L0.676214 12.6409L0.651684 12.5807L0.647129 12.5693L0.623184 12.5092L0.619313 12.4993L0.59283 12.4311L0.567031 12.3632L0.563355 12.3533L0.540809 12.2925L0.537067 12.2823L0.514456 12.2197L0.511886 12.2124L0.488169 12.1452L0.485762 12.1382L0.464094 12.075L0.460873 12.0655L0.440182 12.0035L0.437319 11.9948L0.415847 11.9287L0.414513 11.9246L0.393138 11.8569L0.39073 11.8492L0.371405 11.7862L0.368705 11.7773L0.349738 11.7135L0.347786 11.7069L0.328005 11.6384L0.326737 11.6339L0.308355 11.5681L0.30611 11.56L0.288965 11.4966L0.28685 11.4887L0.269477 11.4222L0.268501 11.4185L0.251063 11.3494L0.249566 11.3434L0.23382 11.2786L0.231901 11.2706L0.21674 11.206L0.215276 11.1997L0.199627 11.1302L0.199139 11.128L0.184369 11.0599L0.182905 11.0529L0.169501 10.9884L0.168004 10.9809L0.154763 10.9144L0.153982 10.9103L0.140741 10.8405L0.139928 10.836L0.127923 10.7697L0.126654 10.7623L0.115462 10.6972L0.114389 10.6909L0.102937 10.6205L0.0921356 10.5503L0.0912247 10.5442L0.0817248 10.4787L0.0807163 10.4716L0.0716719 10.4051L0.0710537 10.4005L0.0621395 10.3302L0.0617491 10.3271L0.0537458 10.2593L0.052965 10.2525L0.0458075 10.187L0.0451243 10.1805L0.0382272 10.1117L0.038032 10.1096L0.0315577 10.0392L0.0311348 10.034L0.0256366 9.9677L0.0250835 9.96064L0.0202035 9.89437L0.0198131 9.88907L0.0152258 9.81844L0.0151282 9.81681L0.0112567 9.74751L0.0109313 9.74114L0.0078081 9.67532L0.0075153 9.66852L0.00488006 9.60052L0.00478246 9.5973L0.0027003 9.52664L0.00257017 9.52238L0.00117122 9.45516L0.00107361 9.44817L0.000292804 9.38206L0.000227736 9.37614ZM1.00292 13.3569L1.0104 13.3718L1.00692 13.3649L1.00292 13.3569ZM0.935801 13.2209L0.97842 13.3078C0.949823 13.2501 0.921812 13.1924 0.894451 13.1345L0.935801 13.2209ZM0.818582 12.9707L0.841551 13.0211L0.834751 13.0064L0.818582 12.9707ZM0.784324 12.8941L0.807911 12.9471L0.80225 12.9346L0.784324 12.8941ZM5.08311 10.0853L5.08327 10.0859L5.08311 10.0853ZM5.0724 10.0475L5.07354 10.0516L5.0724 10.0475ZM5.05311 9.97622L5.05337 9.9772L5.05311 9.97622ZM5.04332 9.93823L5.04459 9.94327L5.04332 9.93823ZM5.03483 9.90426L5.03506 9.90517L5.03483 9.90426ZM5.02591 9.8674L5.02621 9.8686L5.02591 9.8674ZM5.01703 9.82914L5.01837 9.835L5.01703 9.82914ZM5.00942 9.79524L5.01004 9.79801L5.00942 9.79524ZM5.00154 9.7589L5.00181 9.76014L5.00154 9.7589ZM4.99354 9.72028L4.99488 9.72682L4.99354 9.72028ZM4.98677 9.68645L4.98762 9.69074L4.98677 9.68645ZM4.97998 9.65079L4.98017 9.65183L4.97998 9.65079ZM4.97285 9.61165L4.97409 9.61874L4.97285 9.61165ZM4.96696 9.57785L4.96791 9.58338L4.96696 9.57785ZM4.96117 9.54307L4.96127 9.54366L4.96117 9.54307ZM4.95492 9.50325L4.9561 9.5108L4.95492 9.50325ZM4.94991 9.46948L4.95086 9.47602L4.94991 9.46948ZM4.93983 9.39507L4.94084 9.40298L4.93983 9.39507ZM4.93566 9.3613L4.93654 9.36866L4.93566 9.3613ZM2.99174 2.96774C3.2403 2.88207 3.50701 2.83555 3.78455 2.83555C3.50704 2.83555 3.24033 2.88204 2.99174 2.96774L2.93874 2.98667L2.88633 3.00681C2.88633 3.00681 1.72627 4.21046 1.27806 4.9249C0.463931 6.22258 0.0387802 7.61649 0.0026027 9.1067C0.000910945 9.17264 6.50675e-05 9.23881 0 9.30518C6.50675e-05 9.23881 0.000910945 9.17264 0.0026027 9.1067C0.0387802 7.61649 0.463931 6.22258 1.27806 4.9249C1.72627 4.21046 2.88633 3.00681 2.88633 3.00681L2.93874 2.98667L2.99174 2.96774ZM4.9275 9.28716L4.92831 9.29529L4.9275 9.28716ZM4.92421 9.25332L4.92496 9.26139L4.92421 9.25332ZM4.91797 9.17944L4.91858 9.18774L4.91797 9.17944ZM4.91553 9.14561L4.91611 9.15419L4.91553 9.14561ZM4.91344 9.11317V9.11327V9.11317ZM4.9112 9.07198L4.91162 9.08034L4.9112 9.07198ZM4.90964 9.03805L4.91003 9.04706L4.90964 9.03805ZM4.9084 9.00564L4.9085 9.00809L4.9084 9.00564ZM4.90723 8.96478L4.90743 8.97311L4.90723 8.96478ZM4.90655 8.93072L4.90671 8.94009L4.90655 8.93072ZM4.90612 8.89835L4.90619 8.90248L4.90612 8.89835ZM4.90603 8.85781L4.90599 8.86601L4.90603 8.85781ZM4.90622 8.82362L4.90612 8.83322L4.90622 8.82362ZM4.90664 8.79128L4.90658 8.79668L4.90664 8.79128ZM4.90759 8.75113L4.90736 8.7591L4.90759 8.75113ZM4.90866 8.71671L4.90834 8.72651L4.9085 8.7213L4.90866 8.71671ZM4.90996 8.68437L4.9097 8.69078L4.90996 8.68437ZM4.91191 8.64472L4.91149 8.65236L4.91191 8.64472ZM4.9139 8.61003L4.91331 8.61992L4.91361 8.61488L4.9139 8.61003ZM4.91605 8.57766L4.91556 8.58485L4.91605 8.57766ZM4.91897 8.53859L4.91839 8.54578L4.91897 8.53859ZM4.92194 8.50355L4.92106 8.51351L4.92145 8.50863L4.92194 8.50355ZM4.9249 8.47118L4.92418 8.47899L4.9249 8.47118ZM4.9288 8.43276L4.92808 8.43939L4.9288 8.43276ZM4.9327 8.39726L4.9316 8.40725L4.93209 8.40257L4.9327 8.39726ZM4.93654 8.36489L4.93557 8.37319L4.93654 8.36489ZM4.94136 8.32728L4.94058 8.33317L4.94136 8.32728ZM4.94627 8.29124L4.9449 8.30116L4.94549 8.2967L4.94627 8.29124ZM4.95099 8.2588L4.94972 8.26749L4.95099 8.2588ZM4.95662 8.22217L4.95584 8.22715L4.95662 8.22217ZM4.9626 8.18537L4.96098 8.19523L4.96166 8.19103L4.9626 8.18537ZM4.9682 8.1529L4.96664 8.16188L4.9682 8.1529ZM4.97454 8.11754L4.97386 8.12128L4.97454 8.11754ZM4.98173 8.07977L4.97985 8.08949L4.98059 8.08553L4.98173 8.07977ZM4.98817 8.0472L4.98632 8.05644L4.98817 8.0472ZM4.99514 8.01346L4.99468 8.01561L4.99514 8.01346ZM5.00359 7.97432L5.00148 7.98392L5.00359 7.97432ZM5.01092 7.94169L5.0088 7.95113L5.01092 7.94169Z" fill="#2AC4D4"/>
<path d="M34.0951 2.04758V17.7242H43.4741V21.2919H30.0949V2.04758H34.0951Z" fill="#1B2C54"/>
<path d="M55.6918 19.6433C54.3764 21.0488 52.6646 21.7515 50.5564 21.7515C48.4482 21.7515 46.7364 21.0488 45.4209 19.6433C44.0875 18.2558 43.4208 16.4989 43.4208 14.3727C43.4208 12.2644 44.0875 10.4986 45.4209 9.07507C46.7544 7.6876 48.4662 6.99388 50.5564 6.99388C52.6466 6.99388 54.3584 7.6876 55.6918 9.07507C57.0252 10.4986 57.6919 12.2644 57.6919 14.3727C57.6919 16.4989 57.0252 18.2558 55.6918 19.6433ZM47.0967 14.3727C47.0967 15.7241 47.4121 16.7962 48.0427 17.5891C48.6734 18.3819 49.5113 18.7784 50.5564 18.7784C51.6195 18.7784 52.4664 18.3819 53.0971 17.5891C53.7097 16.8143 54.016 15.7421 54.016 14.3727C54.016 13.0032 53.7097 11.9311 53.0971 11.1563C52.4664 10.3634 51.6195 9.96701 50.5564 9.96701C49.5113 9.96701 48.6734 10.3634 48.0427 11.1563C47.4121 11.9491 47.0967 13.0212 47.0967 14.3727Z" fill="#1B2C54"/>
<path d="M72.2324 21.2919H67.7186L64.0157 15.2375L62.6102 16.67V21.2919H58.7992V2.04758H62.6102V12.6157L67.3402 7.34518H72.1243L66.6915 12.832L72.2324 21.2919Z" fill="#1B2C54"/>
<path d="M85.121 21.2918H81.2559C81.0577 20.3908 80.9586 19.9223 80.9586 19.8863C79.9676 21.0935 78.535 21.6972 76.6611 21.6972C75.2015 21.6972 74.0303 21.3098 73.1473 20.535C72.2644 19.7601 71.8229 18.733 71.8229 17.4537C71.8229 15.2013 73.2374 13.7958 76.0664 13.2372L80.9316 12.2642V11.2371C80.9316 10.228 80.1477 9.72349 78.5801 9.72349C77.8053 9.72349 77.2196 9.86765 76.8232 10.156C76.4268 10.4443 76.1835 10.9128 76.0934 11.5615L72.6068 11.5074C72.841 8.51623 74.8231 7.02065 78.5531 7.02065C82.5713 7.02065 84.5804 8.75047 84.5804 12.2101V18.3727C84.5804 19.6881 84.7606 20.6611 85.121 21.2918ZM77.7422 18.8862C78.6972 18.8862 79.4675 18.6024 80.0531 18.0348C80.6388 17.4672 80.9316 16.6969 80.9316 15.7239V14.6968L77.3638 15.4536C76.1565 15.6878 75.5529 16.2735 75.5529 17.2104C75.5529 17.715 75.7466 18.1204 76.134 18.4267C76.5214 18.733 77.0575 18.8862 77.7422 18.8862Z" fill="#1B2C54"/>
<path d="M92.9981 11.5343L94.2684 7.34489H98.1065L93.5116 21.2917H89.6195L85.0246 7.34489H89.0519L90.2141 11.5343L91.6466 17.6158L92.9981 11.5343Z" fill="#1B2C54"/>
<path d="M111.851 14.8051V15.4538H101.742C101.814 16.4989 102.138 17.3188 102.715 17.9135C103.291 18.5081 104.057 18.8054 105.012 18.8054C106.364 18.8054 107.265 18.2017 107.715 16.9945L111.499 17.2648C111.031 18.7423 110.247 19.864 109.148 20.6298C108.049 21.3956 106.697 21.7785 105.093 21.7785C102.841 21.7785 101.066 21.0758 99.7687 19.6703C98.4713 18.2648 97.8227 16.4629 97.8227 14.2646C97.8227 12.1563 98.4443 10.4175 99.6877 9.04806C100.931 7.67862 102.598 6.99388 104.688 6.99388C106.796 6.99388 108.517 7.69661 109.85 9.1021C111.184 10.5256 111.851 12.4266 111.851 14.8051ZM107.904 12.8591C107.796 11.886 107.472 11.1292 106.931 10.5887C106.391 10.0481 105.688 9.77783 104.823 9.77783C103.958 9.77783 103.246 10.0481 102.688 10.5887C102.129 11.1653 101.805 11.9221 101.715 12.8591H107.904Z" fill="#1B2C54"/>
<path d="M120.769 6.99387C122.211 6.99387 123.333 7.43532 124.134 8.31826C124.936 9.20119 125.337 10.4085 125.337 11.9401V21.292H121.526V12.805C121.526 12.0482 121.35 11.4626 120.999 11.0482C120.648 10.6337 120.148 10.4265 119.499 10.4265C118.688 10.4265 118.03 10.7373 117.526 11.359C117.021 11.9806 116.769 12.805 116.769 13.8321V21.292H112.958V7.34524H116.688L116.742 9.23724C117.643 7.74166 118.985 6.99387 120.769 6.99387Z" fill="#1B2C54"/>
</svg>
